<?xml version="1.0" encoding="UTF-8"?>
<svg version="1.1" xmlns="http://www.w3.org/2000/svg" width="1024" height="1024">
<path d="M0 0 C1.9375 0.8125 1.9375 0.8125 3.9375 2.8125 C4.52357043 5.34579689 5.00238217 7.81905227 5.4140625 10.38134766 C5.60556381 11.52138717 5.60556381 11.52138717 5.80093384 12.68445778 C7.12187458 20.67227074 8.23790863 28.68692244 9.3125 36.7109375 C9.52502017 38.28108485 9.73775337 39.85120337 9.95068359 41.42129517 C10.39317258 44.68991072 10.83324373 47.95883956 11.27148438 51.22802734 C11.8215967 55.33046073 12.37762965 59.43206529 12.93533039 63.53347301 C14.98555023 78.62558889 16.99879162 93.71928552 18.69921875 108.85546875 C18.81632202 109.89009247 18.93342529 110.92471619 19.05407715 111.99069214 C22.73923851 145.86783424 20.74889364 180.82228841 11.9375 213.8125 C12.5975 213.8125 13.2575 213.8125 13.9375 213.8125 C16.17585311 216.26069871 17.74890597 218.16813707 18.6875 221.375 C20.63725638 225.17702494 24.05999545 226.32002655 27.9375 227.8125 C29.26439002 228.17062257 30.59642763 228.51181113 31.9375 228.8125 C31.9375 229.4725 31.9375 230.1325 31.9375 230.8125 C33.00677734 230.97637207 33.00677734 230.97637207 34.09765625 231.14355469 C37.20473032 231.875448 39.56386607 233.00771093 42.375 234.515625 C43.42437744 235.07717285 44.47375488 235.6387207 45.55493164 236.21728516 C46.6711792 236.82620605 47.78742676 237.43512695 48.9375 238.0625 C50.09435303 238.69075684 51.25120605 239.31901367 52.44311523 239.96630859 C83.40136597 256.88400548 112.2379979 277.71072246 138.9375 300.75 C139.52998535 301.25942139 140.1224707 301.76884277 140.73291016 302.29370117 C145.10387405 306.06379047 149.41029147 309.90112352 153.6875 313.77734375 C155.88265044 315.76288781 158.09103035 317.73146331 160.3125 319.6875 C160.91835938 320.22117187 161.52421875 320.75484375 162.1484375 321.3046875 C163.96605765 322.88039556 163.96605765 322.88039556 166.1640625 324.3828125 C166.74929688 324.85460937 167.33453125 325.32640625 167.9375 325.8125 C167.9375 326.4725 167.9375 327.1325 167.9375 327.8125 C168.5975 327.8125 169.2575 327.8125 169.9375 327.8125 C169.9375 328.4725 169.9375 329.1325 169.9375 329.8125 C170.46859375 330.02390625 170.9996875 330.2353125 171.546875 330.453125 C174.88026327 332.34858108 177.47008809 334.89709598 180.1875 337.5625 C180.74179687 338.07554687 181.29609375 338.58859375 181.8671875 339.1171875 C184.72843922 341.92205987 185.86073594 343.08824775 186.296875 347.203125 C186.11898437 348.49476563 186.11898437 348.49476563 185.9375 349.8125 C183.25 351.5 183.25 351.5 179.9375 352.8125 C177.72729492 351.64135742 177.72729492 351.64135742 174.9375 349.8125 C172.31722088 348.43673329 169.65023929 347.15625442 166.98828125 345.86328125 C165.83104805 345.29881538 165.83104805 345.29881538 164.6504364 344.72294617 C163.01450911 343.92587679 161.37800573 343.12998885 159.7409668 342.33520508 C157.30128868 341.14991796 154.86440541 339.95903222 152.42773438 338.76757812 C143.5167338 334.42674996 134.57027287 330.22962311 125.44319153 326.35896301 C120.04470443 324.02690887 120.04470443 324.02690887 118.9375 321.8125 C116.94596582 321.12095386 114.94389979 320.45965092 112.9375 319.8125 C110.55496467 318.70324493 108.21377882 317.56900343 105.875 316.375 C104.85321655 315.85655518 104.85321655 315.85655518 103.81079102 315.32763672 C102.3192627 314.56829504 100.82899798 313.8064675 99.33984375 313.04248047 C97.69114916 312.19836224 96.03996523 311.35909375 94.38671875 310.52392578 C64.48582209 295.41289856 37.00362309 275.06716286 16.9375 247.8125 C14.9575 248.1425 12.9775 248.4725 10.9375 248.8125 C12.55415459 293.22419603 14.5585466 337.61310995 16.75 382 C16.81315903 383.27966015 16.87631805 384.5593203 16.94139099 385.87775803 C17.06972603 388.47779685 17.19807349 391.07783505 17.32643318 393.67787266 C17.62080895 399.64087343 17.91509881 405.60387842 18.20919752 411.56689286 C18.27550762 412.91124998 18.34183283 414.25560636 18.40817308 415.599962 C19.98921817 447.64116229 21.50798944 479.68523306 23.00967735 511.73024088 C23.2444963 516.7402233 23.48005669 521.75017046 23.7159729 526.76010132 C24.0321718 533.47562839 24.34703131 540.19121685 24.66087151 546.90685463 C24.77652705 549.37869273 24.89254428 551.85051393 25.00894356 554.32231712 C25.16772921 557.6970859 25.32503957 561.07192017 25.48193359 564.44677734 C25.52862592 565.43274997 25.57531824 566.41872259 25.62342548 567.43457317 C25.66522529 568.34041055 25.70702509 569.24624792 25.75009155 570.17953491 C25.7865447 570.95908728 25.82299786 571.73863964 25.86055565 572.5418148 C25.94273549 574.96700314 25.95035736 577.38610542 25.9375 579.8125 C26.94683594 579.91046875 27.95617187 580.0084375 28.99609375 580.109375 C49.59638805 582.19933045 69.77775527 585.78973544 89.9206543 590.52612305 C91.81231323 590.96952026 91.81231323 590.96952026 93.7421875 591.421875 C94.86608887 591.68967773 95.98999023 591.95748047 97.14794922 592.23339844 C99.95222434 592.91413148 99.95222434 592.91413148 102.9375 592.8125 C102.9375 593.4725 102.9375 594.1325 102.9375 594.8125 C106.5675 595.1425 110.1975 595.4725 113.9375 595.8125 C113.9375 596.4725 113.9375 597.1325 113.9375 597.8125 C115.21882813 598.06515625 116.50015625 598.3178125 117.8203125 598.578125 C123.04041426 599.74177694 127.8705602 601.541166 132.8125 603.5625 C133.68511475 603.91739502 134.55772949 604.27229004 135.45678711 604.63793945 C153.37579107 612.04183926 153.37579107 612.04183926 156.9375 618.8125 C154.86037189 620.88962811 150.35595048 619.99848068 147.49243164 620.01782227 C146.14239988 620.03266741 146.14239988 620.03266741 144.76509476 620.04781246 C141.70930956 620.07990329 138.6535121 620.10452577 135.59765625 620.12890625 C133.39625288 620.14966772 131.19485216 620.17071194 128.99345398 620.1920166 C122.93516557 620.24874547 116.87683647 620.29784779 110.81846619 620.34492874 C107.01157318 620.37490886 103.20470051 620.40680746 99.39782715 620.43917847 C30.91243667 621.01459805 -37.57536329 620.91029908 -106.0625 620.8125 C-105.2918522 615.91298004 -103.91048224 614.04605477 -100.0625 610.8125 C-97.66962152 609.41688636 -95.36668447 608.17923528 -92.875 607 C-92.17286377 606.660896 -91.47072754 606.32179199 -90.74731445 605.97241211 C-89.26311876 605.26108117 -87.77598836 604.55584434 -86.28613281 603.85644531 C-84.8523804 603.18333098 -83.42176172 602.50348074 -81.99511719 601.81542969 C-72.27907443 597.13698951 -62.34303116 593.38060027 -52.125 589.9375 C-50.99989014 589.55601807 -49.87478027 589.17453613 -48.71557617 588.78149414 C-41.88224444 586.53601863 -35.16532243 584.92285453 -28.0625 583.8125 C-28.07650345 582.81571732 -28.0905069 581.81893463 -28.10493469 580.79194641 C-28.23373788 567.07618438 -27.56214989 553.42463611 -26.85546875 539.73046875 C-26.72864909 537.20794654 -26.60223935 534.68540369 -26.47621155 532.1628418 C-26.20985564 526.84820179 -25.94088389 521.53370506 -25.66931152 516.21932983 C-25.28220202 508.64376785 -24.8999544 501.06796685 -24.51914048 493.49208605 C-24.3464177 490.05602218 -24.17352503 486.61996687 -24.00057983 483.18391418 C-23.96660091 482.50881599 -23.93262199 481.83371779 -23.89761341 481.13816208 C-23.6594739 476.40889621 -23.42039764 471.67967828 -23.18081665 466.95048523 C-22.4646079 452.81128424 -21.75392022 438.67187697 -21.06640625 424.53125 C-21.03187536 423.82196161 -20.99734447 423.11267323 -20.9617672 422.38189125 C-20.6909458 416.81783794 -20.42097274 411.25374408 -20.15316772 405.68954468 C-19.33866729 388.78658153 -18.41188907 371.89068503 -17.46476173 354.99475574 C-16.74471941 342.14911164 -16.03179876 329.303087 -15.3338623 316.45622158 C-15.11244965 312.38277109 -14.88909116 308.30944522 -14.66162109 304.23632812 C-14.43451901 300.16849949 -14.21232952 296.10042782 -13.99335098 292.03215408 C-13.9113252 290.52300425 -13.82768144 289.01394119 -13.74215317 287.50498581 C-13.12544899 276.59787206 -12.97006906 265.73640188 -13.0625 254.8125 C-17.08750104 256.62761354 -18.97918198 258.93208504 -21.6875 262.4375 C-23.10123986 264.26455916 -24.54995515 266.0663575 -26.0625 267.8125 C-26.7225 267.8125 -27.3825 267.8125 -28.0625 267.8125 C-28.28550781 268.35390625 -28.50851563 268.8953125 -28.73828125 269.453125 C-30.4832754 272.56220013 -32.81547432 274.99122614 -35.25 277.5625 C-36.24945206 278.63341126 -37.24815032 279.70502652 -38.24609375 280.77734375 C-38.73062012 281.2966748 -39.21514648 281.81600586 -39.71435547 282.35107422 C-41.45649814 284.23960483 -43.13827692 286.17618908 -44.8125 288.125 C-54.46665201 299.19418138 -65.41979707 307.38999156 -78.0625 314.8125 C-78.93277832 315.32619141 -79.80305664 315.83988281 -80.69970703 316.36914062 C-92.4746035 323.31305598 -104.30601501 330.14085975 -116.28515625 336.7265625 C-117.54460265 337.42127378 -118.80372376 338.11657516 -120.0625 338.8125 C-120.71460449 339.17182617 -121.36670898 339.53115234 -122.03857422 339.90136719 C-124.6647483 341.36975105 -126.92390246 342.67390246 -129.0625 344.8125 C-131.31927624 346.00200293 -133.58002024 347.13883454 -135.875 348.25 C-140.83758204 350.67669049 -145.75411581 353.1636698 -150.6171875 355.78515625 C-151.55199951 356.28668213 -152.48681152 356.78820801 -153.44995117 357.30493164 C-155.29306281 358.29727748 -157.13191879 359.29757516 -158.96606445 360.30639648 C-159.81644287 360.76216064 -160.66682129 361.2179248 -161.54296875 361.6875 C-162.67061646 362.30238281 -162.67061646 362.30238281 -163.82104492 362.9296875 C-166.3769752 363.93635822 -168.3393461 363.97559542 -171.0625 363.8125 C-172.29326923 358.39711538 -172.29326923 358.39711538 -171.125 355.4375 C-170.5990625 354.633125 -170.5990625 354.633125 -170.0625 353.8125 C-169.4025 353.8125 -168.7425 353.8125 -168.0625 353.8125 C-167.79373047 353.21920898 -167.52496094 352.62591797 -167.24804688 352.01464844 C-166.05959268 349.80709967 -164.85507611 348.34707118 -163.09375 346.578125 C-162.52269531 346.00449219 -161.95164062 345.43085938 -161.36328125 344.83984375 C-160.76902344 344.25332031 -160.17476562 343.66679687 -159.5625 343.0625 C-158.96824219 342.46050781 -158.37398437 341.85851562 -157.76171875 341.23828125 C-156.90513672 340.38556641 -156.90513672 340.38556641 -156.03125 339.515625 C-155.50982422 338.99645508 -154.98839844 338.47728516 -154.45117188 337.94238281 C-153.0625 336.8125 -153.0625 336.8125 -151.0625 336.8125 C-150.80339844 336.21566406 -150.54429687 335.61882812 -150.27734375 335.00390625 C-148.96320025 332.6333773 -147.71778302 331.451202 -145.625 329.75 C-139.20449406 324.32537546 -133.43178926 318.23394544 -127.5390625 312.25 C-125.13709361 309.88591706 -122.66064936 307.65669391 -120.125 305.4375 C-116.53883813 302.24565608 -113.34367722 299.02396615 -110.4140625 295.22265625 C-109.0625 293.8125 -109.0625 293.8125 -107.1328125 292.8515625 C-104.67202322 291.61652486 -103.20680418 290.11715047 -101.3125 288.125 C-98.06290041 284.79146241 -94.71237295 281.6858557 -91.18359375 278.65234375 C-88.83758942 276.61741181 -86.5451355 274.52959033 -84.25 272.4375 C-79.99127171 268.59882837 -75.62678016 264.92774335 -71.16796875 261.32421875 C-68.86788263 259.46389752 -66.58050364 257.59197665 -64.30078125 255.70703125 C-57.95382168 250.47529772 -51.5787523 245.33258633 -44.875 240.5625 C-44.31087402 240.1598291 -43.74674805 239.7571582 -43.16552734 239.34228516 C-40.2933192 237.31479549 -37.38876349 235.37341002 -34.40625 233.51171875 C-27.12606307 229.15895965 -27.12606307 229.15895965 -23 222.0625 C-22.84273437 221.32257813 -22.68546875 220.58265625 -22.5234375 219.8203125 C-21.82815314 216.79170098 -20.19210872 215.00664232 -18.0625 212.8125 C-16.9178125 212.19375 -16.9178125 212.19375 -15.75 211.5625 C-13.85832351 210.00260972 -13.85832351 210.00260972 -14.04833984 208.02001953 C-14.8002013 202.26936445 -15.83946517 196.61843598 -17 190.9375 C-21.85487858 165.91468325 -22.19886404 140.93014919 -19.890625 115.5703125 C-19.82753206 114.86251207 -19.76443913 114.15471165 -19.69943428 113.42546272 C-17.9588329 94.08741503 -15.41013222 74.84632371 -12.87390137 55.59973145 C-12.36833749 51.74651937 -11.87116033 47.89224292 -11.37399197 44.03794003 C-10.88903748 40.28418862 -10.39991954 36.53098926 -9.90944099 32.77795601 C-9.6783788 31.00760974 -9.44834533 29.23712884 -9.21941948 27.46650505 C-8.90092392 25.00958579 -8.5770528 22.55343271 -8.25170898 20.09741211 C-8.16075455 19.38837234 -8.06980011 18.67933258 -7.97608948 17.94880676 C-7.4832033 14.27292243 -6.88711264 10.62231901 -6.17567444 6.98219299 C-6.03558488 6.25644357 -5.89549532 5.53069414 -5.75116062 4.78295231 C-4.69364863 1.75711219 -3.3609584 -0.30554167 0 0 Z " fill="#388537" transform="translate(273.0625,127.1875)"/>
<path d="M0 0 C1.37841064 0.62648438 1.37841064 0.62648438 2.78466797 1.265625 C16.68866084 7.62283021 29.99409185 14.78456078 43.23193359 22.41992188 C47.62087986 24.92523676 52.06104467 27.33479895 56.5 29.75 C62.86815236 33.22918568 69.14638202 36.8162615 75.34741211 40.5847168 C81.99639132 44.62400084 88.73116733 48.51112847 95.4765625 52.38671875 C98.11567566 53.90390855 100.73137601 55.4427651 103.3359375 57.01953125 C132.20249397 74.6920054 132.20249397 74.6920054 164 83 C164 83.66 164 84.32 164 85 C164.93457031 85.23074219 165.86914062 85.46148437 166.83203125 85.69921875 C168.15890272 86.02845023 169.48572096 86.35789624 170.8125 86.6875 C171.89023682 86.95433594 171.89023682 86.95433594 172.98974609 87.2265625 C176.84565703 88.18784698 180.68925799 89.1791621 184.51953125 90.23828125 C193.02064032 92.57840275 201.511127 94.60144751 210.1875 96.1875 C211.02877441 96.3421875 211.87004883 96.496875 212.73681641 96.65625 C226.84523082 99.13566571 240.7035984 100.32933982 255 100.625 C256.56512222 100.66333218 258.13022681 100.70239166 259.6953125 100.7421875 C263.46339234 100.8364608 267.23156899 100.92106318 271 101 C271.33 100.34 271.66 99.68 272 99 C272.58483154 99.02392822 273.16966309 99.04785645 273.7722168 99.07250977 C280.67944951 99.22898429 287.05872283 98.3296981 293.8125 96.9375 C294.89982422 96.71489502 295.98714844 96.49229004 297.10742188 96.26293945 C324.83361806 90.33575772 350.48445313 78.23277293 373 61 C373.33 60.34 373.66 59.68 374 59 C374.66 59 375.32 59 376 59 C374.53838087 63.32096148 372.23311907 66.64235393 369.4375 70.1875 C368.99712402 70.75339844 368.55674805 71.31929688 368.10302734 71.90234375 C364.58992884 76.36693262 360.87289413 80.61666019 357.0078125 84.78125 C355.60593038 86.33041157 354.26296937 87.93404459 352.96875 89.57421875 C350.0313148 93.19355855 346.56988699 96.02201137 343 99 C342.22269531 99.65355469 341.44539063 100.30710937 340.64453125 100.98046875 C334.72021242 105.84990092 328.54906785 110.02150941 322 114 C321.12214844 114.56460938 320.24429687 115.12921875 319.33984375 115.7109375 C275.96037045 142.67820501 219.28328555 141.835161 171.16870117 130.88061523 C147.08635879 125.13788855 123.43754572 117.16321305 101.35546875 105.86328125 C98.72730574 104.90005733 97.57591902 105.00926191 95 106 C95 105.01 95 104.02 95 103 C94.10583374 102.5349707 94.10583374 102.5349707 93.19360352 102.06054688 C73.27553219 91.6398215 54.26020646 80.04489616 36.00415039 66.92285156 C5.36298211 45.05746418 -26.85819018 24.87480179 -61.25 9.5 C-62.4054834 8.98284424 -63.5609668 8.46568848 -64.75146484 7.93286133 C-70.11892013 5.5705665 -75.31739503 3.44804672 -81 2 C-82.33333333 1.33333333 -83.66666667 0.66666667 -85 0 C-86.65740715 -0.37668344 -88.32345271 -0.72057545 -90 -1 C-90 -1.66 -90 -2.32 -90 -3 C-90.61931396 -3.16145508 -91.23862793 -3.32291016 -91.87670898 -3.48925781 C-100.69562379 -5.83668675 -109.37969011 -8.59551754 -118.06323242 -11.39501953 C-119.9892638 -12.01473413 -121.91841606 -12.62472318 -123.84765625 -13.234375 C-124.98211182 -13.59756836 -126.11656738 -13.96076172 -127.28540039 -14.33496094 C-129.94533835 -15.29699623 -129.94533835 -15.29699623 -132 -14 C-132 -15.32 -132 -16.64 -132 -18 C-125.52000694 -19.56572421 -119.20066618 -20.55008264 -112.5625 -21.125 C-111.60093994 -21.2084668 -110.63937988 -21.29193359 -109.64868164 -21.37792969 C-70.94126058 -24.51368836 -35.11001837 -16.08228419 0 0 Z " fill="#388537" transform="translate(492,365)"/>
<path d="M0 0 C1.66675781 0.34804688 1.66675781 0.34804688 3.3671875 0.703125 C30.61310748 7.00490241 56.60670323 20.9332571 81.83688354 32.72694397 C116.83056515 49.08224353 153.33207242 64.264353 192 69 C192.73186523 69.0913623 193.46373047 69.18272461 194.21777344 69.27685547 C213.72692781 71.49686269 233.72850971 70.61803419 253 67 C253.7513623 66.86078125 254.50272461 66.7215625 255.27685547 66.578125 C282.28504469 61.37056519 310.12560911 48.89419368 331.37109375 31.33984375 C333 30 333 30 336 28 C336.33 28.66 336.66 29.32 337 30 C322.2857502 60.72335359 289.53432477 86.20701086 258.18212891 97.69335938 C247.73068932 101.25746632 236.8884667 103.27743824 226 105 C224.90905029 105.176521 223.81810059 105.35304199 222.6940918 105.53491211 C218.86482989 106.01701798 215.10249727 106.17821704 211.25 106.203125 C210.52278244 106.21004868 209.79556488 106.21697235 209.04631042 106.22410583 C206.69748513 106.2413579 204.34888578 106.24769948 202 106.25 C201.19720612 106.25133942 200.39441223 106.25267883 199.56729126 106.25405884 C186.17570855 106.24921921 173.20053056 105.37492063 160 103 C158.96190186 102.82380127 158.96190186 102.82380127 157.90283203 102.64404297 C153.565719 101.90229623 149.28547511 100.9952482 145 100 C144.33242676 99.84869629 143.66485352 99.69739258 142.97705078 99.54150391 C111.18341166 92.21460473 80.68338879 78.84480556 52.125 63.25 C-0.24409133 34.93796 -56.8288074 19.07462599 -116.4921875 26.5625 C-120 27 -120 27 -123 27 C-123.66 26.34 -124.32 25.68 -125 25 C-104.99912711 14.03530073 -85.12194656 5.63212061 -63 0 C-61.73800781 -0.34160156 -60.47601563 -0.68320312 -59.17578125 -1.03515625 C-40.29160086 -5.42445223 -18.78153694 -4.6243957 0 0 Z " fill="#388637" transform="translate(494,289)"/>
<path d="M0 0 C5.22333536 0.55877541 9.1072123 2.29505111 13.6875 4.6875 C14.38431885 5.04473145 15.0811377 5.40196289 15.79907227 5.77001953 C17.87116019 6.83716268 19.93618844 7.91695463 22 9 C23.13953125 9.59167969 24.2790625 10.18335938 25.453125 10.79296875 C32.8595837 14.71916741 32.8595837 14.71916741 34 17 C34.71671875 17.28101563 35.4334375 17.56203125 36.171875 17.8515625 C39.57346595 19.23287153 42.3196995 21.20952901 45.25 23.375 C46.49160753 24.27944255 47.7338226 25.18305151 48.9765625 26.0859375 C49.95544434 26.7989502 49.95544434 26.7989502 50.95410156 27.52636719 C53.0453622 29.03267378 55.15520068 30.50846808 57.2734375 31.9765625 C64.81501923 37.20861431 72.07192543 42.54208355 79.05078125 48.51171875 C82.26217647 51.22120055 85.55429471 53.80208189 88.875 56.375 C93.58603492 60.0332753 98.13890821 63.82017575 102.625 67.75 C135.01066189 95.9291897 173.58617678 119.14256851 215 131 C216.05960938 131.309375 217.11921875 131.61875 218.2109375 131.9375 C224.54012141 133.66515125 230.63634951 134.45187093 237.1875 134.7890625 C240 135 240 135 241.79101562 135.50488281 C244.61813978 136.13854857 247.25907918 136.12979999 250.15625 136.1328125 C251.93708984 136.13474609 251.93708984 136.13474609 253.75390625 136.13671875 C254.99011719 136.13285156 256.22632813 136.12898437 257.5 136.125 C258.73621094 136.12886719 259.97242188 136.13273438 261.24609375 136.13671875 C262.43332031 136.13542969 263.62054687 136.13414062 264.84375 136.1328125 C265.92849609 136.13168457 267.01324219 136.13055664 268.13085938 136.12939453 C270.60041816 136.01802062 272.64688119 135.71632123 275 135 C275 136.32 275 137.64 275 139 C237.97325054 157.22451356 197.11524962 158.21452947 157.9609375 145.3984375 C135.70203024 137.71834649 116.1590695 125.85957844 98 111 C96.56720703 109.91332031 96.56720703 109.91332031 95.10546875 108.8046875 C94.06326172 107.91136719 94.06326172 107.91136719 93 107 C93 106.34 93 105.68 93 105 C92.42419189 104.74943848 91.84838379 104.49887695 91.25512695 104.24072266 C88.69361407 102.83143301 86.9781505 101.22091237 84.91796875 99.1484375 C84.15033203 98.37886719 83.38269531 97.60929688 82.59179688 96.81640625 C81.79837891 96.01074219 81.00496094 95.20507812 80.1875 94.375 C79.40568359 93.59253906 78.62386719 92.81007813 77.81835938 92.00390625 C71.3873377 85.52453103 65.37819667 78.77429206 59.625 71.6875 C58.861875 70.7490625 58.09875 69.810625 57.3125 68.84375 C56.549375 67.9053125 55.78625 66.966875 55 66 C54.278125 65.1234375 53.55625 64.246875 52.8125 63.34375 C48.67851982 58.32391692 44.62258279 53.25337595 40.625 48.125 C34.11961096 39.79375748 27.31220926 31.73280594 20.3125 23.8125 C17.72961632 20.8889482 15.29270803 17.87402972 12.875 14.8125 C10.09795255 11.30634357 7.20990547 8.12074143 4 5 C2.64444707 3.35135455 1.30368347 1.68996005 0 0 Z " fill="#388637" transform="translate(453,425)"/>
<path d="M0 0 C-0.98742187 0.55429687 -1.97484375 1.10859375 -2.9921875 1.6796875 C-4.28655535 2.41128672 -5.58082087 3.14306699 -6.875 3.875 C-7.52597656 4.23980469 -8.17695313 4.60460937 -8.84765625 4.98046875 C-11.50393354 6.48660536 -13.83019001 7.83019001 -16 10 C68.48 10.33 152.96 10.66 240 11 C236.88742431 7.88742431 234.71872691 6.0659594 231 4 C234 3 234 3 235.97265625 3.85546875 C236.66230469 4.29503906 237.35195313 4.73460937 238.0625 5.1875 C238.75472656 5.61417969 239.44695312 6.04085937 240.16015625 6.48046875 C242.18694904 8.15440165 243.00473296 9.59176317 244 12 C241.92287189 14.07712811 237.41845048 13.18598068 234.55493164 13.20532227 C233.65491047 13.21521903 232.7548893 13.2251158 231.82759476 13.23531246 C228.77180956 13.26740329 225.7160121 13.29202577 222.66015625 13.31640625 C220.45875288 13.33716772 218.25735216 13.35821194 216.05595398 13.3795166 C209.99766557 13.43624547 203.93933647 13.48534779 197.88096619 13.53242874 C194.07407318 13.56240886 190.26720051 13.59430746 186.46032715 13.62667847 C117.97493667 14.20209805 49.48713671 14.09779908 -19 14 C-18.21114102 9.06963135 -16.89784254 7.24820212 -13 4 C-4.51315789 -1.65789474 -4.51315789 -1.65789474 0 0 Z " fill="#246A20" transform="translate(186,734)"/>
<path d="M0 0 C5.72558916 1.62381463 10.68851107 4.33801883 15.875 7.1875 C17.32205322 7.98208618 17.32205322 7.98208618 18.79833984 8.79272461 C38.38171732 19.67641151 56.90495142 32.18691749 75.37239075 44.83509827 C81.87322417 49.28674469 88.41557698 53.67309345 95 58 C95.66467285 58.43715332 96.3293457 58.87430664 97.01416016 59.32470703 C125.46717726 77.99557294 154.87546547 93.5302823 187 105 C187 105.33 187 105.66 187 106 C180.14183007 105.50955643 174.60922476 103.49801222 168.3125 100.8125 C167.34586426 100.41047363 166.37922852 100.00844727 165.38330078 99.59423828 C158.96665317 96.90497908 152.66819559 94.04367015 146.4609375 90.8984375 C143.76889514 89.91562839 142.6312721 89.97466862 140 91 C140 90.01 140 89.02 140 88 C139.10583374 87.5349707 139.10583374 87.5349707 138.19360352 87.06054688 C118.27553219 76.6398215 99.26020646 65.04489616 81.00415039 51.92285156 C55.25343219 33.54726536 28.21335868 16.3201229 0 2 C0 1.34 0 0.68 0 0 Z " fill="#24681F" transform="translate(447,380)"/>
<path d="M0 0 C3.73487777 0.4979837 5.81237635 0.87491756 9 3 C8.67 3.66 8.34 4.32 8 5 C10.53931124 8.27168943 13.21120007 11.34298614 16.05883789 14.34960938 C21.33726467 19.92371033 26.23207793 25.67604108 30.9152832 31.75634766 C34.0889681 35.87006577 37.37212291 39.86498605 40.75 43.8125 C44.28054883 47.94420128 47.69932983 52.13292902 51.01171875 56.44140625 C58.71593083 66.35547092 66.67503735 75.95739655 75.28515625 85.09765625 C77.66757284 87.64461384 79.96870437 90.23794677 82.25 92.875 C85.882427 96.9754084 89.8111822 100.48196392 94 104 C94.91136719 104.81082031 95.82273437 105.62164063 96.76171875 106.45703125 C111.04590405 119.07721814 127.01144687 128.48688912 144 137 C139.13190636 138.50343936 136.46601236 136.64394905 132.0534668 134.37646484 C120.31938815 128.15143416 109.26440618 120.44918432 99.1640625 111.83984375 C97.03017082 109.97079453 97.03017082 109.97079453 94.7109375 108.37890625 C94.14632812 107.92386719 93.58171875 107.46882812 93 107 C93 106.34 93 105.68 93 105 C92.42419189 104.74943848 91.84838379 104.49887695 91.25512695 104.24072266 C88.69361407 102.83143301 86.9781505 101.22091237 84.91796875 99.1484375 C84.15033203 98.37886719 83.38269531 97.60929688 82.59179688 96.81640625 C81.79837891 96.01074219 81.00496094 95.20507812 80.1875 94.375 C79.40568359 93.59253906 78.62386719 92.81007813 77.81835938 92.00390625 C71.3873377 85.52453103 65.37819667 78.77429206 59.625 71.6875 C58.861875 70.7490625 58.09875 69.810625 57.3125 68.84375 C56.549375 67.9053125 55.78625 66.966875 55 66 C54.278125 65.1234375 53.55625 64.246875 52.8125 63.34375 C48.67851982 58.32391692 44.62258279 53.25337595 40.625 48.125 C34.11961096 39.79375748 27.31220926 31.73280594 20.3125 23.8125 C17.72961632 20.8889482 15.29270803 17.87402972 12.875 14.8125 C10.09795255 11.30634357 7.20990547 8.12074143 4 5 C2.64444707 3.35135455 1.30368347 1.68996005 0 0 Z " fill="#22651D" transform="translate(453,425)"/>
<path d="M0 0 C7.70445213 1.45274627 14.71514238 4.00951128 22 6.875 C23.1240625 7.30941406 24.248125 7.74382812 25.40625 8.19140625 C35.5094902 12.12175553 45.29059555 16.56414384 55.0625 21.25 C56.08053711 21.73742676 57.09857422 22.22485352 58.14746094 22.72705078 C63.70618807 25.3957667 69.24461765 28.09806754 74.75 30.875 C77.49818237 32.25365142 80.24886872 33.62724393 83 35 C83.98484375 35.49290527 84.9696875 35.98581055 85.984375 36.49365234 C99.68132093 43.31981097 113.20780369 49.55369179 127.78417969 54.23779297 C130.15549415 55.05348752 132.45356021 55.98802115 134.76953125 56.94921875 C140.59774396 59.32075283 146.57616399 61.03751058 152.625 62.75 C153.72457031 63.06582031 154.82414063 63.38164062 155.95703125 63.70703125 C158.63673327 64.47598922 161.31768594 65.24021388 164 66 C164 66.33 164 66.66 164 67 C154.65970039 66.75159429 146.31818052 64.19311691 137.5625 61.1875 C136.84845001 60.94623383 136.13440002 60.70496765 135.39871216 60.45639038 C113.74706069 53.1246031 92.69561518 44.11020851 72.62109375 33.15625 C49.55685057 20.58043919 25.13576835 9.72992446 0 2 C0 1.34 0 0.68 0 0 Z " fill="#246920" transform="translate(477,321)"/>
<path d="M0 0 C3.25735511 2.73913952 6.46082351 5.48487908 9.5390625 8.42578125 C38.69002399 36.17139336 78.95780088 52.10267175 115 69 C115.87416565 69.40986145 115.87416565 69.40986145 116.76599121 69.82800293 C121.25785991 71.93302681 125.7530178 74.03092499 130.25 76.125 C130.86921326 76.41370972 131.48842651 76.70241943 132.12640381 76.99987793 C133.88028012 77.8168803 135.63542606 78.63115546 137.390625 79.4453125 C138.40157227 79.91469238 139.41251953 80.38407227 140.45410156 80.86767578 C143.04100291 82.06732866 143.04100291 82.06732866 146 83 C146 83.66 146 84.32 146 85 C145.01 85.33 144.02 85.66 143 86 C141.29229043 85.07182664 139.63407524 84.05241432 138 83 C135.37854655 81.62640874 132.71276545 80.34376713 130.05078125 79.05078125 C128.89354805 78.48631538 128.89354805 78.48631538 127.7129364 77.91044617 C126.07700911 77.11337679 124.44050573 76.31748885 122.8034668 75.52270508 C120.36378868 74.33741796 117.92690541 73.14653222 115.49023438 71.95507812 C106.5792338 67.61424996 97.63277287 63.41712311 88.50569153 59.54646301 C83.10720443 57.21440887 83.10720443 57.21440887 82 55 C80.00846582 54.30845386 78.00639979 53.64715092 76 53 C73.61746467 51.89074493 71.27627882 50.75650343 68.9375 49.5625 C68.25631104 49.21687012 67.57512207 48.87124023 66.87329102 48.51513672 C65.3817627 47.75579504 63.89149798 46.9939675 62.40234375 46.22998047 C60.75364916 45.38586224 59.10246523 44.54659375 57.44921875 43.71142578 C37.3213973 33.5394212 14.25785498 21.07572982 0 3 C0 2.01 0 1.02 0 0 Z " fill="#266B21" transform="translate(310,394)"/>
<path d="M0 0 C2.10911021 3.16366531 2.28892218 4.16613592 2.46829224 7.81930542 C2.52152649 8.8133136 2.57476074 9.80732178 2.62960815 10.83145142 C2.67852203 11.9220285 2.72743591 13.01260559 2.77783203 14.13623047 C2.83664551 15.28667847 2.89545898 16.43712646 2.95605469 17.62243652 C3.14930841 21.45362078 3.32892571 25.28530739 3.5078125 29.1171875 C3.63808379 31.80444072 3.77059312 34.49158294 3.90280151 37.17874146 C4.17996455 42.84297787 4.44934498 48.50754619 4.71435547 54.17236328 C4.98304171 59.91369575 5.26015466 65.65453504 5.54638672 71.39501953 C7.08435097 102.26022758 8.59289444 133.08580963 8 164 C7.67 164 7.34 164 7 164 C6.05687636 155.86449623 5.65460143 147.73490744 5.31640625 139.5546875 C5.2562867 138.15280474 5.19588053 136.75093425 5.13520813 135.34907532 C5.00748638 132.38800109 4.88134441 129.42686594 4.75653076 126.46566772 C4.46394671 119.52851026 4.16286661 112.59171996 3.8615799 105.65493584 C3.79499559 104.1217227 3.7285029 102.58850558 3.66210175 101.0552845 C3.11496428 88.43014125 2.52139215 75.80798433 1.875 63.1875 C1.7944407 61.60083385 1.71395396 60.01416401 1.63354492 58.42749023 C1.36431681 53.12409106 1.09394794 47.82075197 0.8203125 42.51757812 C0.09782444 28.33444952 -0.12905046 14.20150658 0 0 Z " fill="#23681E" transform="translate(289,530)"/>
<path d="M0 0 C0.495 1.485 0.495 1.485 1 3 C-8.69819135 13.11985184 -18.93012141 20.91379571 -31 28 C-31.87027832 28.51369141 -32.74055664 29.02738281 -33.63720703 29.55664062 C-45.4121035 36.50055598 -57.24351501 43.32835975 -69.22265625 49.9140625 C-70.48210265 50.60877378 -71.74122376 51.30407516 -73 52 C-73.65210449 52.35932617 -74.30420898 52.71865234 -74.97607422 53.08886719 C-77.6022483 54.55725105 -79.86140246 55.86140246 -82 58 C-84.56902259 59.35651305 -87.1407871 60.66328761 -89.75 61.9375 C-90.45382813 62.28490234 -91.15765625 62.63230469 -91.8828125 62.99023438 C-93.26945624 63.67453533 -94.65809824 64.35480384 -96.04882812 65.03076172 C-97.83079863 65.91594977 -99.58159566 66.86319481 -101.328125 67.81640625 C-104 69 -104 69 -107 68 C-105.86292603 67.37508667 -105.86292603 67.37508667 -104.70288086 66.73754883 C-71.78913586 48.65039158 -71.78913586 48.65039158 -39.3984375 29.6484375 C-35.7762459 27.45593622 -32.1187944 25.34142947 -28.4375 23.25 C-17.48041811 16.84172069 -8.71117485 9.12164905 0 0 Z " fill="#256A20" transform="translate(226,414)"/>
<path d="M0 0 C4.1127975 0.55895529 7.51787933 1.47171807 11.2890625 3.1953125 C12.29855957 3.65599121 13.30805664 4.11666992 14.34814453 4.59130859 C15.97018799 5.35048584 15.97018799 5.35048584 17.625 6.125 C18.76437012 6.65561035 19.90374023 7.1862207 21.07763672 7.73291016 C40.80945038 17.04555083 59.81350101 27.71592162 78.58203125 38.82421875 C82.03063136 40.86116829 85.49819014 42.84674307 89.01171875 44.76953125 C89.76678711 45.18348145 90.52185547 45.59743164 91.29980469 46.02392578 C92.67759519 46.77387433 94.05949842 47.51633971 95.44628906 48.24951172 C99.8906073 50.6718219 99.8906073 50.6718219 101 54 C94.90392893 52.42812052 90.05706871 49.09760695 84.8125 45.75 C78.40484099 41.71721916 72.01514729 37.77545647 65.3125 34.24609375 C62.91908735 32.95640011 60.62287752 31.55758606 58.3125 30.125 C52.10365838 26.35849892 45.59269314 23.22451161 39.07910156 20.02783203 C37.08432943 19.0416894 35.09934054 18.03857434 33.1171875 17.02734375 C24.65783372 12.72333065 16.10084755 8.73276867 7.38574219 4.96899414 C6.56879883 4.6105542 5.75185547 4.25211426 4.91015625 3.8828125 C4.17933838 3.56715332 3.44852051 3.25149414 2.69555664 2.92626953 C1 2 1 2 0 0 Z " fill="#23681E" transform="translate(475,359)"/>
<path d="M0 0 C5.08352459 0.5493003 8.87569759 3.01443939 13.1875 5.5625 C14.61626872 6.40093151 16.0471626 7.23575534 17.48046875 8.06640625 C18.10848389 8.43709229 18.73649902 8.80777832 19.38354492 9.18969727 C20.99662576 10.14937717 20.99662576 10.14937717 23 10 C23 10.66 23 11.32 23 12 C24.04414063 12.35964844 24.04414063 12.35964844 25.109375 12.7265625 C28.48621871 14.21419905 31.3002691 16.19517009 34.25 18.375 C35.49160753 19.27944255 36.7338226 20.18305151 37.9765625 21.0859375 C38.95544434 21.7989502 38.95544434 21.7989502 39.95410156 22.52636719 C42.0453622 24.03267378 44.15520068 25.50846808 46.2734375 26.9765625 C53.80793048 32.20369641 61.06020334 37.53048651 68.03125 43.49609375 C71.351027 46.29606357 74.75657172 48.96368142 78.1875 51.625 C83.65391104 55.87623708 88.90948877 60.30003064 94 65 C93.67 65.66 93.34 66.32 93 67 C87.86381882 63.1113667 82.8854161 59.07340446 78 54.875 C72.73541533 50.36648235 67.31905301 46.08404527 61.8125 41.875 C61.06935547 41.3063623 60.32621094 40.73772461 59.56054688 40.15185547 C55.93445018 37.3328597 55.93445018 37.3328597 52 35 C52 34.34 52 33.68 52 33 C50.9790625 32.66355469 50.9790625 32.66355469 49.9375 32.3203125 C46.20302897 30.64178696 43.23915434 28.35305988 40 25.875 C33.22640482 20.80290004 26.30060068 16.29126217 19 12 C17.93394531 11.3709375 16.86789062 10.741875 15.76953125 10.09375 C10.53483612 7.02446292 5.27597615 3.99771372 0 1 C0 0.67 0 0.34 0 0 Z " fill="#22681E" transform="translate(464,430)"/>
<path d="M0 0 C4.34466101 1.461605 7.64048794 3.80200847 11.1875 6.625 C11.75992432 7.07375488 12.33234863 7.52250977 12.92211914 7.98486328 C14.61905507 9.31788258 16.30957 10.65874752 18 12 C19.27617187 12.99773437 19.27617187 12.99773437 20.578125 14.015625 C30.62936975 21.93680464 40.26959744 30.37322893 49.75 38.96484375 C51.94515044 40.95038781 54.15353035 42.91896331 56.375 44.875 C56.98085938 45.40867187 57.58671875 45.94234375 58.2109375 46.4921875 C60.02855765 48.06789556 60.02855765 48.06789556 62.2265625 49.5703125 C62.81179688 50.04210937 63.39703125 50.51390625 64 51 C64 51.66 64 52.32 64 53 C64.66 53 65.32 53 66 53 C66 53.66 66 54.32 66 55 C66.54140625 55.22171875 67.0828125 55.4434375 67.640625 55.671875 C70.77097009 57.43398979 73.20259503 59.75608385 75.75 62.25 C76.25660156 62.71535156 76.76320313 63.18070312 77.28515625 63.66015625 C79.94043586 66.25817916 80.96194502 67.61038953 81.328125 71.359375 C81.21984375 72.23078125 81.1115625 73.1021875 81 74 C80.74041504 73.41516846 80.48083008 72.83033691 80.21337891 72.2277832 C78.91356092 69.84129646 77.51043278 68.26697789 75.5859375 66.35546875 C74.56693359 65.33936523 74.56693359 65.33936523 73.52734375 64.30273438 C72.81707031 63.60470703 72.10679687 62.90667969 71.375 62.1875 C70.34439453 61.15786133 70.34439453 61.15786133 69.29296875 60.10742188 C65.2516502 56.10022328 61.10724008 52.26868525 56.77905273 48.57299805 C54.99453695 46.99516969 53.33702903 45.34250485 51.6875 43.625 C48.05718925 39.93745462 44.09581739 36.74388174 40.06640625 33.50390625 C37.3641929 31.29738554 34.72489634 29.04090818 32.09594727 26.74902344 C25.54701155 21.04460221 18.79957434 15.67560115 11.86083984 10.45214844 C7.81174775 7.40398805 3.81846631 4.33519167 0 1 C0 0.67 0 0.34 0 0 Z " fill="#246A1F" transform="translate(377,402)"/>
<path d="M0 0 C3.02414936 4.53622404 2.56485935 9.08323249 2.75 14.4375 C2.81030396 16.17012085 2.81030396 16.17012085 2.87182617 17.93774414 C3.5164553 43.05797669 2.18245499 72.01932965 -6 96 C-6.99 96.495 -6.99 96.495 -8 97 C-7.06438341 89.05208177 -5.8009772 81.16111083 -4.54882812 73.2578125 C-4.01519599 69.84094359 -3.50495603 66.42121897 -3 63 C-2.81759766 61.82888672 -2.63519531 60.65777344 -2.44726562 59.45117188 C-0.69400565 47.16560109 -0.5558414 34.89328742 -0.375 22.5 C-0.33671909 20.30857996 -0.29766193 18.11717333 -0.2578125 15.92578125 C-0.16294147 10.61730865 -0.07759242 5.30875184 0 0 Z " fill="#22671D" transform="translate(291,245)"/>
<path d="M0 0 C0.33 0 0.66 0 1 0 C1.37605782 19.68166495 0.27265011 39.24406895 -0.85424805 58.88287354 C-1.10024067 63.19444022 -1.33882713 67.50641687 -1.578125 71.81835938 C-2.04502946 80.21264653 -2.51984259 88.60646051 -3 97 C-3.33 97 -3.66 97 -4 97 C-4.45028888 75.46695487 -3.77271345 54.02300481 -2.66626358 32.52008438 C-2.56234372 30.49695747 -2.46007725 28.47375172 -2.35800171 26.45053101 C-2.16266076 22.62292328 -1.9600772 18.79578832 -1.75390625 14.96875 C-1.69343109 13.80459061 -1.63295593 12.64043121 -1.57064819 11.44099426 C-1.51067657 10.37185287 -1.45070496 9.30271149 -1.38891602 8.20117188 C-1.33784195 7.26527222 -1.28676788 6.32937256 -1.23414612 5.3651123 C-1 3 -1 3 0 0 Z " fill="#20641B" transform="translate(254,529)"/>
<path d="M0 0 C0.99 0.33 1.98 0.66 3 1 C2.23558594 1.70382812 1.47117188 2.40765625 0.68359375 3.1328125 C-0.39852528 4.1301131 -1.48054846 5.1275177 -2.5625 6.125 C-3.13806641 6.65544922 -3.71363281 7.18589844 -4.30664062 7.73242188 C-7.55875884 10.73357277 -10.80031162 13.74531598 -14.02734375 16.7734375 C-14.68984131 17.39460449 -15.35233887 18.01577148 -16.03491211 18.65576172 C-17.31973387 19.86156909 -18.60316007 21.06886564 -19.88500977 22.27783203 C-22.48599714 24.717821 -25.04790372 27.03696918 -27.875 29.21875 C-30.2577728 30.90015411 -30.2577728 30.90015411 -31 34 C-32.65571884 35.01802402 -34.32433244 36.01515687 -36 37 C-37.64794154 38.53772033 -39.2505695 40.12498669 -40.8125 41.75 C-46.22066723 47.27100529 -51.7783681 52.40914827 -58 57 C-56.59957012 53.82613059 -54.94785382 51.71139186 -52.48046875 49.28515625 C-51.78759766 48.59873047 -51.09472656 47.91230469 -50.38085938 47.20507812 C-49.65705078 46.49802734 -48.93324219 45.79097656 -48.1875 45.0625 C-47.47529297 44.35931641 -46.76308594 43.65613281 -46.02929688 42.93164062 C-44.64216456 41.56247302 -43.25282414 40.19553822 -41.86108398 38.83105469 C-40.32780883 37.32251951 -38.81015733 35.79812135 -37.296875 34.26953125 C-34.95851944 31.95901325 -32.53588859 29.78970344 -30.0625 27.625 C-26.47633813 24.43315608 -23.28117722 21.21146615 -20.3515625 17.41015625 C-19 16 -19 16 -17.07421875 15.04296875 C-14.59049308 13.79408974 -13.10071695 12.26063125 -11.1875 10.25 C-8.57351167 7.58236639 -5.95775736 4.94364384 -3.1875 2.4375 C-2.37345703 1.69306641 -2.37345703 1.69306641 -1.54296875 0.93359375 C-0.77919922 0.47146484 -0.77919922 0.47146484 0 0 Z " fill="#286C22" transform="translate(183,405)"/>
<path d="M0 0 C0.33 0 0.66 0 1 0 C3.40156721 28.72092603 4.15633162 57.1964995 4 86 C3.67 86 3.34 86 3 86 C1.12828268 57.31688494 -0.59621548 28.75287362 0 0 Z " fill="#22681E" transform="translate(285,442)"/>
<path d="M0 0 C3.22947905 0.63442697 5.51905446 1.7823801 8.28125 3.5546875 C9.52841797 4.34504395 9.52841797 4.34504395 10.80078125 5.15136719 C11.69152344 5.72016602 12.58226562 6.28896484 13.5 6.875 C28.33747437 16.17663936 43.20286276 24.61075891 59.46289062 31.18457031 C60.30400391 31.52713867 61.14511719 31.86970703 62.01171875 32.22265625 C62.75897217 32.51922119 63.50622559 32.81578613 64.27612305 33.12133789 C66 34 66 34 67 36 C61.77240722 35.40091951 57.54663946 33.71957308 52.8125 31.5625 C52.03076416 31.20905518 51.24902832 30.85561035 50.44360352 30.49145508 C32.63074694 22.32212886 15.74885297 12.68923931 0 1 C0 0.67 0 0.34 0 0 Z " fill="#246B1F" transform="translate(583,516)"/>
<path d="M0 0 C0.495 1.485 0.495 1.485 1 3 C-15.6331207 20.4910083 -40.11487594 43.51626278 -65.6875 45.25 C-66.450625 45.1675 -67.21375 45.085 -68 45 C-67.67 44.34 -67.34 43.68 -67 43 C-64.77265601 42.27990318 -62.51646801 41.64792587 -60.25 41.0625 C-55.62618531 39.86785332 -52.02267631 38.55080303 -48 36 C-46.33426894 35.33099907 -44.66752994 34.66450441 -43 34 C-26.66217829 25.49454226 -11.61605461 14.39884809 0 0 Z " fill="#22671D" transform="translate(810,343)"/>
<path d="M0 0 C5.82827838 -0.15198458 11.15207081 0.3749527 16.875 1.4375 C29.45949299 3.73257769 41.86238692 4.25588692 54.625 4.5625 C56.31381077 4.60578206 58.002613 4.64939911 59.69140625 4.69335938 C63.79418244 4.79943596 67.89704777 4.9009764 72 5 C72 5.33 72 5.66 72 6 C48.56157444 9.05611437 22.6987705 8.01869877 0 1 C0 0.67 0 0.34 0 0 Z " fill="#1D651A" transform="translate(660,355)"/>
<path d="M0 0 C0.66 0 1.32 0 2 0 C0.50977142 4.50436323 -2.01508226 7.89788093 -4.9375 11.5625 C-5.82173427 12.68870813 -6.70585168 13.81500801 -7.58984375 14.94140625 C-8.38519531 15.95074219 -9.18054688 16.96007812 -10 18 C-10.55816406 18.79277344 -11.11632812 19.58554687 -11.69140625 20.40234375 C-12.12324219 20.92957031 -12.55507813 21.45679688 -13 22 C-13.66 22 -14.32 22 -15 22 C-13.50923566 18.7173068 -11.61379679 16.06922559 -9.375 13.25 C-8.74335937 12.45078125 -8.11171875 11.6515625 -7.4609375 10.828125 C-6.97882812 10.22484375 -6.49671875 9.6215625 -6 9 C-6.6084375 9.40089844 -7.216875 9.80179687 -7.84375 10.21484375 C-13.56491614 13.92518826 -19.36878566 17.41010033 -25.3125 20.75 C-25.98152344 21.12632568 -26.65054688 21.50265137 -27.33984375 21.89038086 C-38.2910736 28 -38.2910736 28 -41 28 C-41 27.34 -41 26.68 -41 26 C-40.46334717 25.73485596 -39.92669434 25.46971191 -39.3737793 25.1965332 C-28.94124011 19.99853911 -18.86470549 14.54766809 -9.25 7.9375 C-8.43490967 7.37780518 -7.61981934 6.81811035 -6.7800293 6.24145508 C-2.78164489 3.6722551 -2.78164489 3.6722551 0 0 Z " fill="#22661D" transform="translate(866,424)"/>
<path d="M0 0 C0 0.66 0 1.32 0 2 C-3.35364627 2.6485549 -6.70800551 3.2933479 -10.0625 3.9375 C-11.00544922 4.11990234 -11.94839844 4.30230469 -12.91992188 4.49023438 C-14.30727539 4.75610352 -14.30727539 4.75610352 -15.72265625 5.02734375 C-16.56578369 5.18968506 -17.40891113 5.35202637 -18.27758789 5.51928711 C-24.39514381 6.59950122 -30.25606831 7.15867359 -36.453125 7.16796875 C-37.62618195 7.17296135 -37.62618195 7.17296135 -38.82293701 7.17805481 C-40.46333228 7.18308613 -42.10373765 7.18546432 -43.74414062 7.18530273 C-46.25667862 7.18750586 -48.76878852 7.20574632 -51.28125 7.22460938 C-52.88020684 7.22754076 -54.47916575 7.22952726 -56.078125 7.23046875 C-57.20314423 7.24124702 -57.20314423 7.24124702 -58.35089111 7.25224304 C-62.11581747 7.23564633 -63.78664453 7.14223698 -67 5 C-65.95884033 4.98541748 -64.91768066 4.97083496 -63.8449707 4.95581055 C-34.67134266 5.11759644 -34.67134266 5.11759644 -6.02197266 0.45507812 C-4 0 -4 0 0 0 Z " fill="#266D21" transform="translate(741,388)"/>
<path d="M0 0 C0.66 0.66 1.32 1.32 2 2 C-1.8078848 8.29183615 -5.86348481 14.33510962 -10.3125 20.1875 C-10.74481934 20.76395264 -11.17713867 21.34040527 -11.62255859 21.93432617 C-12.69857318 23.32941867 -13.84386385 24.67054911 -15 26 C-15.66 26 -16.32 26 -17 26 C-15.12315261 21.85961808 -12.40600567 18.6315205 -9.55859375 15.12109375 C-7.8266441 12.99146649 -7.8266441 12.99146649 -7 10 C-9.67552702 11.29310989 -12.18600115 12.69781672 -14.6796875 14.3125 C-15.36160156 14.74820312 -16.04351563 15.18390625 -16.74609375 15.6328125 C-18.15983777 16.5407215 -19.57132305 17.45215782 -20.98046875 18.3671875 C-24.89667416 20.85998868 -28.47798239 22.75254687 -33 24 C-33 23.34 -33 22.68 -33 22 C-31.43041992 20.89013672 -31.43041992 20.89013672 -29.23046875 19.6796875 C-28.42867187 19.23044922 -27.626875 18.78121094 -26.80078125 18.31835938 C-25.93839844 17.84205078 -25.07601562 17.36574219 -24.1875 16.875 C-11.23456347 9.61689773 -11.23456347 9.61689773 0 0 Z " fill="#2D7128" transform="translate(829,317)"/>
<path d="M0 0 C-0.98742187 0.54269531 -1.97484375 1.08539062 -2.9921875 1.64453125 C-4.28666715 2.36681338 -5.58092658 3.08949029 -6.875 3.8125 C-7.85146484 4.34713867 -7.85146484 4.34713867 -8.84765625 4.89257812 C-12.06597903 6.70081103 -13.9196783 7.87951745 -16 11 C8.09 11.33 32.18 11.66 57 12 C57 12.33 57 12.66 57 13 C47.92818764 13.93387861 38.94165399 14.13353929 29.828125 14.09765625 C28.41038056 14.09578571 26.99263546 14.09436482 25.57489014 14.09336853 C21.88592672 14.08959336 18.19700417 14.07980728 14.50805664 14.06866455 C10.72673088 14.05834144 6.94539836 14.05384782 3.1640625 14.04882812 C-4.22397674 14.03817928 -11.61198259 14.02116484 -19 14 C-18.21114102 9.06963135 -16.89784254 7.24820212 -13 4 C-4.51315789 -1.65789474 -4.51315789 -1.65789474 0 0 Z " fill="#185711" transform="translate(186,734)"/>
<path d="M0 0 C2 2 2 2 2.13334656 4.47123718 C2.07862686 5.51157608 2.02390717 6.55191498 1.9675293 7.6237793 C1.91054367 8.80227951 1.85355804 9.98077972 1.79484558 11.19499207 C1.72203873 12.47513687 1.64923187 13.75528168 1.57421875 15.07421875 C1.50717239 16.38654984 1.44012604 17.69888092 1.37104797 19.05097961 C1.22840793 21.83473946 1.07893685 24.61801687 0.92407227 27.40112305 C0.72647572 30.95350802 0.54057452 34.50637191 0.35921001 38.05961895 C0.18506739 41.46054464 0.00473282 44.86112488 -0.17578125 48.26171875 C-0.24251541 49.5317424 -0.30924957 50.80176605 -0.37800598 52.11027527 C-0.6940928 57.7917652 -1.04700368 63.38733411 -2 69 C-2.33 69 -2.66 69 -3 69 C-3.16546506 45.83998338 -2.73678988 23.01029157 0 0 Z " fill="#1D6118" transform="translate(262,379)"/>
<path d="M0 0 C2.37079103 2.37079103 2.28218818 2.96063406 2.42651367 6.19580078 C2.46963181 7.06496124 2.51274994 7.9341217 2.55717468 8.82962036 C2.59373672 9.77529877 2.63029877 10.72097717 2.66796875 11.6953125 C2.71190262 12.67555389 2.75583649 13.65579529 2.80110168 14.66574097 C2.89216125 16.75206016 2.97841797 18.83859354 3.06030273 20.92529297 C3.18508359 24.06421408 3.32859265 27.2018477 3.47460938 30.33984375 C3.96682641 41.64902784 4.04848982 52.72019536 3 64 C2.67 64 2.34 64 2 64 C0.38471631 42.62326685 -0.28001042 21.43587486 0 0 Z " fill="#23691E" transform="translate(282,376)"/>
<path d="M0 0 C4.87484612 0.57943544 8.93980765 2.10588784 13.34765625 4.16796875 C14.04080429 4.48526443 14.73395233 4.80256012 15.44810486 5.12947083 C17.65606575 6.1420964 19.85928836 7.16458895 22.0625 8.1875 C23.51467129 8.8554761 24.96714304 9.52279941 26.41992188 10.18945312 C29.94320606 11.80815447 33.46273515 13.4348149 36.98077393 15.06488037 C40.17184048 16.54268863 43.36532769 18.01523199 46.55859375 19.48828125 C48.37240553 20.32549982 50.18621169 21.16273058 52 22 C52 22.66 52 23.32 52 24 C47.6973459 23.34518223 44.13789581 21.85397858 40.1875 20.05078125 C39.5373291 19.75568161 38.8871582 19.46058197 38.21728516 19.15653992 C36.14258439 18.21342504 34.07129331 17.26307136 32 16.3125 C30.63953863 15.69288553 29.27886321 15.07374081 27.91796875 14.45507812 C22.67289923 12.0674314 17.43335694 9.66817597 12.20703125 7.23974609 C11.04558594 6.70043457 9.88414062 6.16112305 8.6875 5.60546875 C7.66011719 5.1261792 6.63273438 4.64688965 5.57421875 4.15307617 C2.96499102 2.93320858 2.96499102 2.93320858 0 2 C0 1.34 0 0.68 0 0 Z " fill="#23691F" transform="translate(531,303)"/>
<path d="M0 0 C4.45885946 0.59619401 7.95907698 2.36026132 11.8125 4.5625 C12.48394043 4.9430957 13.15538086 5.32369141 13.84716797 5.71582031 C20.60754806 9.63344329 27.12019118 13.92513318 33.625 18.25 C34.6560083 18.93521729 35.6870166 19.62043457 36.74926758 20.32641602 C41.72053478 23.66872186 46.50251873 27.03976052 51 31 C50.67 31.66 50.34 32.32 50 33 C48.86691406 32.16082031 48.86691406 32.16082031 47.7109375 31.3046875 C32.5025122 20.17737882 16.51441472 10.07447362 0 1 C0 0.67 0 0.34 0 0 Z " fill="#23681E" transform="translate(325,369)"/>
<path d="M0 0 C0 4.62992487 -2.88103525 6.78106843 -6 10 C-8.58038536 12.44254426 -11.26491393 14.73295005 -14 17 C-14.77472656 17.65097656 -15.54945313 18.30195313 -16.34765625 18.97265625 C-22.26781034 23.84200645 -28.43332543 28.05234848 -35 32 C-36.28197266 32.78310547 -36.28197266 32.78310547 -37.58984375 33.58203125 C-42.12392427 36.24956971 -42.12392427 36.24956971 -44 37 C-44.99 36.67 -45.98 36.34 -47 36 C-46.40687012 35.6690332 -45.81374023 35.33806641 -45.20263672 34.99707031 C-32.76934581 28.00439693 -21.27868262 20.93660285 -11 11 C-10.45682129 10.4750293 -9.91364258 9.95005859 -9.35400391 9.40917969 C-6.18469359 6.32161559 -3.07197285 3.18482083 0 0 Z " fill="#22661D" transform="translate(849,447)"/>
<path d="M0 0 C-4.0335922 2.68906147 -8.02773192 2.73930766 -12.7265625 3.2109375 C-14.49264828 3.4110019 -16.2482928 3.69899065 -18 4 C-18.33 4.66 -18.66 5.32 -19 6 C-16.03 6.99 -13.06 7.98 -10 9 C-10 9.33 -10 9.66 -10 10 C-16.00098463 9.51604963 -21.23312455 8.46819851 -26.93359375 6.5234375 C-29.04349705 5.74960255 -29.04349705 5.74960255 -31 7 C-31 5.68 -31 4.36 -31 3 C-20.59218457 0.48198014 -10.69837239 -0.16543875 0 0 Z " fill="#2B7125" transform="translate(391,344)"/>
<path d="M0 0 C0.33 0 0.66 0 1 0 C1.34181222 18.42893752 0.36792664 36.63485728 -1 55 C-1.33 55 -1.66 55 -2 55 C-2.02514475 50.16601927 -2.04306491 45.33207847 -2.05493164 40.49804688 C-2.05989045 38.86132136 -2.06665953 37.2246001 -2.07543945 35.58789062 C-2.22637587 6.67912761 -2.22637587 6.67912761 0 0 Z " fill="#266C21" transform="translate(249,630)"/>
<path d="M0 0 C2.063927 0.01842792 4.12740478 0.0205073 6.19140625 0.02026367 C13.77457422 0.04094751 21.26384713 0.34265876 28.80078125 1.20581055 C28.80078125 1.53581055 28.80078125 1.86581055 28.80078125 2.20581055 C23.27309983 2.35104206 17.74535196 2.49330431 12.2175293 2.63305664 C10.34511354 2.68078394 8.47271671 2.72926095 6.6003418 2.77856445 C-5.33599114 3.0922573 -17.2586854 3.27670346 -29.19921875 3.20581055 C-29.19921875 2.87581055 -29.19921875 2.54581055 -29.19921875 2.20581055 C-19.39791857 0.64731552 -9.9158263 -0.09124267 0 0 Z " fill="#256B1F" transform="translate(406.19921875,310.794189453125)"/>
<path d="M0 0 C0.99 0.33 1.98 0.66 3 1 C2.05640625 1.68964844 1.1128125 2.37929688 0.140625 3.08984375 C-15.63334342 14.6125724 -15.63334342 14.6125724 -31.0625 26.58984375 C-32.9701124 27.97824713 -34.86180188 29.01203792 -37 30 C-35.4588032 25.82913616 -32.42697894 23.66091581 -29 21.0625 C-28.09350708 20.36265991 -28.09350708 20.36265991 -27.16870117 19.64868164 C-18.30834408 12.86195391 -9.2876291 6.19175274 0 0 Z " fill="#266B20" transform="translate(245,356)"/>
<path d="M0 0 C0.33 0 0.66 0 1 0 C1.27302468 17.11864723 0.66210708 33.9589819 -1 51 C-1.33 51 -1.66 51 -2 51 C-3.77706083 34.40609417 -3.59211204 16.32503494 0 0 Z " fill="#21681D" transform="translate(258,453)"/>
<path d="M0 0 C6.10372058 0.61809829 11.77366628 1.900464 17.6875 3.5 C24.71392373 5.34116582 31.29176482 6.59449859 38.56640625 6.859375 C41 7 41 7 44 8 C44 8.66 44 9.32 44 10 C28.62906274 10.99763295 14.2559173 6.09847042 0 1 C0 0.67 0 0.34 0 0 Z " fill="#276E23" transform="translate(652,553)"/>
<path d="M0 0 C14.52 0 29.04 0 44 0 C43.67 0.66 43.34 1.32 43 2 C32.2499827 2.70155735 21.58248809 3.1855971 10.8125 2.6875 C9.95817383 2.65277588 9.10384766 2.61805176 8.22363281 2.58227539 C2.24992864 2.24992864 2.24992864 2.24992864 0 0 Z " fill="#256A1F" transform="translate(698,500)"/>
<path d="M0 0 C4.52671196 0.53255435 7.4200555 2.21559872 11 5 C11.66 6.32 12.32 7.64 13 9 C-4.82 9 -22.64 9 -41 9 C-41 8.67 -41 8.34 -41 8 C-24.5 8 -8 8 9 8 C5.86900697 4.86900697 3.68148856 3.14753499 0 1 C0 0.67 0 0.34 0 0 Z " fill="#1F621A" transform="translate(417,737)"/>
<path d="M0 0 C0 0.66 0 1.32 0 2 C-26.72285911 13.81197402 -26.72285911 13.81197402 -42 13 C-38.59865549 10.732437 -35.68414921 10.30725684 -31.75 9.6875 C-22.39235049 8.07610718 -13.22023772 5.61628935 -4.6953125 1.34375 C-2 0 -2 0 0 0 Z " fill="#266A20" transform="translate(724,564)"/>
<path d="M0 0 C0.33 0 0.66 0 1 0 C1.18897066 8.46645825 0.66929439 16.66295908 -0.375 25.0625 C-0.50132812 26.17560547 -0.62765625 27.28871094 -0.7578125 28.43554688 C-0.88671875 29.49966797 -1.015625 30.56378906 -1.1484375 31.66015625 C-1.26364746 32.61543213 -1.37885742 33.57070801 -1.49755859 34.55493164 C-2 37 -2 37 -4 40 C-4.54729964 26.9864308 -4.14610321 12.43830962 0 0 Z " fill="#23681F" transform="translate(261,182)"/>
<path d="M0 0 C6.39139482 0.56826587 12.26828347 1.7054923 18.4375 3.4375 C24.92831806 5.20691739 31.37399973 6.80514749 38 8 C38 8.66 38 9.32 38 10 C30.92310676 9.47168861 24.2015407 8.30843104 17.3125 6.625 C16.41466797 6.41617187 15.51683594 6.20734375 14.59179688 5.9921875 C9.45670402 4.75826042 4.7848295 3.23859328 0 1 C0 0.67 0 0.34 0 0 Z " fill="#276E22" transform="translate(663,453)"/>
<path d="M0 0 C4.85893813 0.6612756 8.91142289 2.64652991 13.3125 4.6875 C21.74185091 8.5242361 30.28792304 11.86650093 39 15 C39 15.33 39 15.66 39 16 C32.04810365 15.51688824 26.43934055 13.41544342 20.0625 10.6875 C19.12470703 10.29626953 18.18691406 9.90503906 17.22070312 9.50195312 C11.44466895 7.08155799 5.71189905 4.56775063 0 2 C0 1.34 0 0.68 0 0 Z " fill="#21661C" transform="translate(595,470)"/>
<path d="M0 0 C1.45821481 -0.02792326 2.91660243 -0.04679418 4.375 -0.0625 C5.18710937 -0.07410156 5.99921875 -0.08570313 6.8359375 -0.09765625 C9.46927003 -0.01638055 12.00864826 0.1895995 14.625 0.46875 C20.28478066 1.06432169 25.94026729 1.33101222 31.625 1.5625 C32.62917969 1.60568359 33.63335938 1.64886719 34.66796875 1.69335938 C37.11188383 1.79809859 39.55587617 1.90027256 42 2 C42 2.33 42 2.66 42 3 C32.10671617 5.19850752 21.80821584 3.9270827 11.8125 3.125 C10.7716626 3.04660889 9.7308252 2.96821777 8.65844727 2.88745117 C7.68447998 2.80342041 6.7105127 2.71938965 5.70703125 2.6328125 C4.38409058 2.52283936 4.38409058 2.52283936 3.03442383 2.41064453 C2.36306396 2.27513184 1.6917041 2.13961914 1 2 C0.67 1.34 0.34 0.68 0 0 Z " fill="#266A20" transform="translate(637,575)"/>
<path d="M0 0 C4.5007486 0.59594892 8.30276716 1.76828925 12.4921875 3.50390625 C14.29042969 4.24350586 14.29042969 4.24350586 16.125 4.99804688 C17.37505674 5.51939522 18.62505604 6.04088131 19.875 6.5625 C21.14820052 7.08846464 22.421636 7.6138609 23.6953125 8.13867188 C26.79923011 9.42021362 29.90063822 10.70748804 33 12 C33 12.99 33 13.98 33 15 C21.85234278 10.62778029 10.79312689 6.19960857 0 1 C0 0.67 0 0.34 0 0 Z " fill="#21661D" transform="translate(585,328)"/>
<path d="M0 0 C0.33 0 0.66 0 1 0 C1.33 3.63 1.66 7.26 2 11 C3.80984375 11.18175781 3.80984375 11.18175781 5.65625 11.3671875 C7.27086471 11.53615881 8.88544632 11.70544656 10.5 11.875 C11.68722656 11.99294922 11.68722656 11.99294922 12.8984375 12.11328125 C18.09066024 12.66655089 22.96153821 13.6248235 28 15 C28 15.33 28 15.66 28 16 C2.79841897 14.79841897 2.79841897 14.79841897 0 12 C-0.07244053 9.98035801 -0.08377188 7.95832876 -0.0625 5.9375 C-0.05347656 4.83277344 -0.04445313 3.72804688 -0.03515625 2.58984375 C-0.02355469 1.73519531 -0.01195312 0.88054688 0 0 Z " fill="#266C22" transform="translate(297,696)"/>
<path d="M0 0 C0.99 0.33 1.98 0.66 3 1 C2.16855469 1.81404297 2.16855469 1.81404297 1.3203125 2.64453125 C0.23363281 3.71767578 0.23363281 3.71767578 -0.875 4.8125 C-1.59429687 5.52019531 -2.31359375 6.22789062 -3.0546875 6.95703125 C-5.15358937 9.04399194 -5.15358937 9.04399194 -7 12 C-6.69159401 14.15274948 -6.69159401 14.15274948 -6 16 C-5.30132812 15.6390625 -4.60265625 15.278125 -3.8828125 14.90625 C-2.97273438 14.4421875 -2.06265625 13.978125 -1.125 13.5 C-0.22007813 13.0359375 0.68484375 12.571875 1.6171875 12.09375 C4 11 4 11 6 11 C6 11.66 6 12.32 6 13 C4.44424022 13.84584998 2.8800388 14.67618399 1.3125 15.5 C0.44238281 15.9640625 -0.42773438 16.428125 -1.32421875 16.90625 C-4.11788829 18.04818792 -6.01629113 18.21504208 -9 18 C-10.23076923 12.58461538 -10.23076923 12.58461538 -9.0625 9.625 C-8.711875 9.08875 -8.36125 8.5525 -8 8 C-7.34 8 -6.68 8 -6 8 C-5.7525 7.4225 -5.505 6.845 -5.25 6.25 C-3.83316683 3.6997003 -2.12372463 1.98214299 0 0 Z " fill="#286A21" transform="translate(111,473)"/>
<path d="M0 0 C1.34191406 -0.01836914 1.34191406 -0.01836914 2.7109375 -0.03710938 C8.6501217 -0.05005818 13.87168248 0.70522981 19.625 2.1875 C19.625 2.5175 19.625 2.8475 19.625 3.1875 C7.27646452 3.4045641 -5.04298292 2.75441997 -17.375 2.1875 C-17.375 1.8575 -17.375 1.5275 -17.375 1.1875 C-11.5579224 0.19142507 -5.89572369 0.00421123 0 0 Z " fill="#23681E" transform="translate(466.375,285.8125)"/>
<path d="M0 0 C0 0.66 0 1.32 0 2 C-0.82242187 2.30292969 -1.64484375 2.60585938 -2.4921875 2.91796875 C-8.88960617 5.31884758 -15.0391939 7.87191165 -21.07421875 11.08203125 C-23 12 -23 12 -25 12 C-25.33 12.99 -25.66 13.98 -26 15 C-26.66 15 -27.32 15 -28 15 C-28.33 15.66 -28.66 16.32 -29 17 C-29.99 16.01 -30.98 15.02 -32 14 C-28.6481529 12.22475079 -25.29311795 10.45560966 -21.9375 8.6875 C-20.99455078 8.18798828 -20.05160156 7.68847656 -19.08007812 7.17382812 C-5.44505381 0 -5.44505381 0 0 0 Z " fill="#296D23" transform="translate(401,300)"/>
<path d="M0 0 C0.66 0 1.32 0 2 0 C0.50977142 4.50436323 -2.01508226 7.89788093 -4.9375 11.5625 C-5.82173427 12.68870813 -6.70585168 13.81500801 -7.58984375 14.94140625 C-8.78287109 16.45541016 -8.78287109 16.45541016 -10 18 C-10.83724609 19.18916016 -10.83724609 19.18916016 -11.69140625 20.40234375 C-12.12324219 20.92957031 -12.55507813 21.45679688 -13 22 C-13.66 22 -14.32 22 -15 22 C-13.50923566 18.7173068 -11.61379679 16.06922559 -9.375 13.25 C-8.74335937 12.45078125 -8.11171875 11.6515625 -7.4609375 10.828125 C-6.97882812 10.22484375 -6.49671875 9.6215625 -6 9 C-6.99 9.33 -7.98 9.66 -9 10 C-9.33 9.34 -9.66 8.68 -10 8 C-9.36191406 7.59007812 -8.72382812 7.18015625 -8.06640625 6.7578125 C-7.24011719 6.21898437 -6.41382813 5.68015625 -5.5625 5.125 C-4.32693359 4.32449219 -4.32693359 4.32449219 -3.06640625 3.5078125 C-0.88961129 2.16165694 -0.88961129 2.16165694 0 0 Z " fill="#2D6F27" transform="translate(866,424)"/>
<path d="M0 0 C5.17855152 4.29213279 9.86361937 8.82279315 14.4375 13.75 C15.07365234 14.42160156 15.70980469 15.09320313 16.36523438 15.78515625 C17.26532227 16.75001953 17.26532227 16.75001953 18.18359375 17.734375 C18.72556396 18.31413086 19.26753418 18.89388672 19.82592773 19.49121094 C21 21 21 21 21 23 C17.90379468 21.63362929 15.90719712 20.1094719 13.6171875 17.62890625 C13.00746094 16.97212891 12.39773438 16.31535156 11.76953125 15.63867188 C11.14433594 14.95353516 10.51914062 14.26839844 9.875 13.5625 C9.24207031 12.88123047 8.60914063 12.19996094 7.95703125 11.49804688 C5.40853863 8.73582717 3.09033386 6.13550079 1 3 C0.01 2.34 -0.98 1.68 -2 1 C-1.34 0.67 -0.68 0.34 0 0 Z " fill="#266A20" transform="translate(288,371)"/>
<path d="M0 0 C0.99 0.33 1.98 0.66 3 1 C-20.43083004 17 -20.43083004 17 -25 17 C-25 16.34 -25 15.68 -25 15 C-23.35107422 13.82666016 -23.35107422 13.82666016 -21.0546875 12.5390625 C-20.22453125 12.06726563 -19.394375 11.59546875 -18.5390625 11.109375 C-17.65992188 10.61953125 -16.78078125 10.1296875 -15.875 9.625 C-14.16301168 8.66071742 -12.45205079 7.69460818 -10.7421875 6.7265625 C-9.92459961 6.26668945 -9.10701172 5.80681641 -8.26464844 5.33300781 C-6.28391164 4.16711487 -4.43429024 2.92657208 -2.5703125 1.5859375 C-1.72210937 1.06257813 -0.87390625 0.53921875 0 0 Z " fill="#256A20" transform="translate(821,324)"/>
<path d="M0 0 C0.66 0 1.32 0 2 0 C1.86157705 3.95862931 1.71300994 7.91681327 1.5625 11.875 C1.50352539 13.56689453 1.50352539 13.56689453 1.44335938 15.29296875 C1.40146484 16.36933594 1.35957031 17.44570313 1.31640625 18.5546875 C1.27974854 19.54968262 1.24309082 20.54467773 1.20532227 21.56982422 C1 24 1 24 0 26 C-1.65 26 -3.3 26 -5 26 C-3.68 25.34 -2.36 24.68 -1 24 C-1.01160156 22.77023437 -1.02320313 21.54046875 -1.03515625 20.2734375 C-1.04454022 18.64062653 -1.05363977 17.0078139 -1.0625 15.375 C-1.07087891 14.56675781 -1.07925781 13.75851562 -1.08789062 12.92578125 C-1.1058955 8.49658082 -0.89622662 4.36116576 0 0 Z " fill="#246A20" transform="translate(246,687)"/>
<path d="M0 0 C6.3784069 0.51934276 11.60049419 2.1364003 17.5 4.5625 C18.73363281 5.0565332 18.73363281 5.0565332 19.9921875 5.56054688 C21.99818913 6.36528009 23.99959345 7.18145758 26 8 C25.67 8.99 25.34 9.98 25 11 C22.14523322 9.89736521 19.29118052 8.79293976 16.4375 7.6875 C15.63763672 7.37876953 14.83777344 7.07003906 14.01367188 6.75195312 C9.2998149 4.92413103 4.63414006 3.02160472 0 1 C0 0.67 0 0.34 0 0 Z " fill="#246820" transform="translate(504,293)"/>
<path d="M0 0 C5.51088477 0.94071856 10.18797628 3.14017532 15.25 5.4375 C16.63445312 6.04948242 16.63445312 6.04948242 18.046875 6.67382812 C19.36171875 7.26647461 19.36171875 7.26647461 20.703125 7.87109375 C21.90437012 8.41141235 21.90437012 8.41141235 23.12988281 8.96264648 C25 10 25 10 26 12 C22.38549563 11.385789 19.27609839 10.39633734 15.91796875 8.93359375 C14.98662109 8.53076172 14.05527344 8.12792969 13.09570312 7.71289062 C12.13599609 7.29201172 11.17628906 6.87113281 10.1875 6.4375 C9.20845703 6.01275391 8.22941406 5.58800781 7.22070312 5.15039062 C4.81187093 4.10460494 2.40509197 3.05435216 0 2 C0 1.34 0 0.68 0 0 Z " fill="#25681F" transform="translate(420,368)"/>
<path d="M0 0 C5.44520865 0.76539077 10.8818902 1.57444465 16.3125 2.4375 C17.12267578 2.55931641 17.93285156 2.68113281 18.76757812 2.80664062 C24.77146112 3.77146112 24.77146112 3.77146112 27 6 C20.4576343 6.20956527 14.78261159 5.54580496 8.4375 4 C7.61958984 3.80921875 6.80167969 3.6184375 5.95898438 3.421875 C3.97056956 2.95674873 1.98496244 2.47964573 0 2 C0 1.34 0 0.68 0 0 Z " fill="#256A1F" transform="translate(655,492)"/>
<path d="M0 0 C0.66 0 1.32 0 2 0 C2.30384747 9.85816251 1.39879438 19.27088552 0 29 C-0.33 29 -0.66 29 -1 29 C-1.02937438 25.66668561 -1.04692334 22.33340517 -1.0625 19 C-1.07087891 18.06542969 -1.07925781 17.13085938 -1.08789062 16.16796875 C-1.10708892 10.67725599 -0.8134193 5.43133519 0 0 Z " fill="#21641C" transform="translate(255,224)"/>
<path d="M0 0 C2 0.6875 2 0.6875 4 2.6875 C4.26991906 5.37589385 4.08737357 7.97891936 4 10.6875 C2 6.6875 2 6.6875 0 2.6875 C-3.25334259 4.37511154 -3.25334259 4.37511154 -3.73046875 7.5078125 C-3.88128906 8.59835938 -4.03210938 9.68890625 -4.1875 10.8125 C-4.34605469 11.90820312 -4.50460937 13.00390625 -4.66796875 14.1328125 C-4.77753906 14.97585937 -4.88710938 15.81890625 -5 16.6875 C-5.33 16.6875 -5.66 16.6875 -6 16.6875 C-6.05449838 14.95869018 -6.09301688 13.22937288 -6.125 11.5 C-6.14820313 10.53707031 -6.17140625 9.57414063 -6.1953125 8.58203125 C-5.98896101 5.5239022 -5.38418613 3.41231396 -4 0.6875 C-2 -0.3125 -2 -0.3125 0 0 Z " fill="#24621D" transform="translate(273,127.3125)"/>
<path d="M0 0 C5.17408583 0.95800301 8.66756789 4.23362604 12.75 7.375 C13.54277344 7.96539062 14.33554687 8.55578125 15.15234375 9.1640625 C15.90128906 9.73640625 16.65023437 10.30875 17.421875 10.8984375 C18.10862305 11.42099121 18.79537109 11.94354492 19.50292969 12.48193359 C21 14 21 14 21 17 C15.22943614 12.69404625 9.46275422 8.38251161 3.75 4 C3.02296875 3.443125 2.2959375 2.88625 1.546875 2.3125 C1.03640625 1.879375 0.5259375 1.44625 0 1 C0 0.67 0 0.34 0 0 Z " fill="#21681D" transform="translate(559,498)"/>
<path d="M0 0 C0.99 0.33 1.98 0.66 3 1 C0.77172107 2.9177069 -1.45758905 4.83419239 -3.6875 6.75 C-4.31333984 7.28882813 -4.93917969 7.82765625 -5.58398438 8.3828125 C-9.0065083 11.32152415 -12.4555823 14.20783921 -16 17 C-16 14 -16 14 -13.515625 11.40625 C-12.43462585 10.42909067 -11.34569879 9.46064754 -10.25 8.5 C-9.71117187 8.01402344 -9.17234375 7.52804687 -8.6171875 7.02734375 C-7.09549239 5.66524105 -5.54834198 4.33173455 -4 3 C-3.27296875 2.3709375 -2.5459375 1.741875 -1.796875 1.09375 C-1.20390625 0.7328125 -0.6109375 0.371875 0 0 Z " fill="#25691F" transform="translate(204,387)"/>
<path d="M0 0 C4.91871986 0.61846379 8.84721354 2.75326348 13.1875 5 C14.27321289 5.55300781 14.27321289 5.55300781 15.38085938 6.1171875 C17.25638849 7.07327118 19.12843676 8.03617609 21 9 C21.66 9.33 22.32 9.66 23 10 C23 10.66 23 11.32 23 12 C18.62126799 11.02883446 14.92483993 9.12764238 10.9375 7.125 C10.21755859 6.77308594 9.49761719 6.42117188 8.75585938 6.05859375 C8.06169922 5.71183594 7.36753906 5.36507813 6.65234375 5.0078125 C6.02320068 4.69473145 5.39405762 4.38165039 4.74584961 4.05908203 C2.86059981 2.91543588 1.49295339 1.61361636 0 0 Z " fill="#23691F" transform="translate(594,423)"/>
<path d="M0 0 C-0.98742187 0.54269531 -1.97484375 1.08539062 -2.9921875 1.64453125 C-4.28666715 2.36681338 -5.58092658 3.08949029 -6.875 3.8125 C-7.85146484 4.34713867 -7.85146484 4.34713867 -8.84765625 4.89257812 C-12.06597903 6.70081103 -13.9196783 7.87951745 -16 11 C-16 11.66 -16 12.32 -16 13 C-16.99 13.33 -17.98 13.66 -19 14 C-18.71695018 10.69775208 -18.09226561 9.11533201 -16 6.5 C-5.69121813 -2.09065156 -5.69121813 -2.09065156 0 0 Z " fill="#24631D" transform="translate(186,734)"/>
<path d="M0 0 C0 0.33 0 0.66 0 1 C-3.76972318 1.83840998 -7.5409489 2.6698549 -11.3125 3.5 C-12.9202832 3.85771484 -12.9202832 3.85771484 -14.56054688 4.22265625 C-16.10258789 4.56103516 -16.10258789 4.56103516 -17.67578125 4.90625 C-18.62364502 5.11572266 -19.57150879 5.32519531 -20.5480957 5.54101562 C-23 6 -23 6 -26 6 C-26 5.34 -26 4.68 -26 4 C-8.14350797 -0.59225513 -8.14350797 -0.59225513 0 0 Z " fill="#22681E" transform="translate(445,288)"/>
<path d="M0 0 C6.02741895 -0.16589226 11.57494793 0.42885867 17.5 1.5 C18.32242188 1.64308594 19.14484375 1.78617187 19.9921875 1.93359375 C21.99584627 2.28306912 23.99808298 2.64068156 26 3 C26 3.33 26 3.66 26 4 C19.6132039 5.16456489 14.76043609 4.63780517 8.5 3.0625 C7.67757812 2.86720703 6.85515625 2.67191406 6.0078125 2.47070312 C4.00226859 1.99263743 2.00067914 1.49803231 0 1 C0 0.67 0 0.34 0 0 Z " fill="#256B21" transform="translate(660,355)"/>
<path d="M0 0 C6.28199181 3.27756095 11.55515231 7.48636368 17 12 C16.01 12.33 15.02 12.66 14 13 C11.51953125 11.63671875 11.51953125 11.63671875 8.8125 9.6875 C7.91144531 9.05199219 7.01039063 8.41648437 6.08203125 7.76171875 C5.39496094 7.18035156 4.70789063 6.59898437 4 6 C4 5.34 4 4.68 4 4 C1.525 3.01 1.525 3.01 -1 2 C-0.67 1.34 -0.34 0.68 0 0 Z " fill="#23691E" transform="translate(512,459)"/>
<path d="M0 0 C4.35970831 1.34849837 8.31341438 3.04907846 12.375 5.125 C13.43460937 5.66382813 14.49421875 6.20265625 15.5859375 6.7578125 C16.38257813 7.16773438 17.17921875 7.57765625 18 8 C17.01 8.66 16.02 9.32 15 10 C10.05 7.36 5.1 4.72 0 2 C0 1.34 0 0.68 0 0 Z " fill="#296F24" transform="translate(497,368)"/>
<path d="M0 0 C6.83981276 0.51621228 12.63876684 2.48590969 19 5 C19 5.66 19 6.32 19 7 C14.39583374 6.39124245 10.43516676 5.15277044 6.125 3.4375 C4.97257812 2.98246094 3.82015625 2.52742187 2.6328125 2.05859375 C1.76398438 1.70925781 0.89515625 1.35992188 0 1 C0 0.67 0 0.34 0 0 Z " fill="#246921" transform="translate(388,726)"/>
<path d="M0 0 C6.48429963 0.61172638 12.86526344 1.74664334 19 4 C19.33 4.66 19.66 5.32 20 6 C12.91296261 5.45484328 6.67203894 3.39081395 0 1 C0 0.67 0 0.34 0 0 Z " fill="#22681D" transform="translate(652,553)"/>
<path d="M0 0 C7.03482474 -0.23668569 13.1834265 0.2120463 20 2 C20 2.33 20 2.66 20 3 C12.96517526 3.23668569 6.8165735 2.7879537 0 1 C0 0.67 0 0.34 0 0 Z " fill="#226A1E" transform="translate(702,463)"/>
<path d="M0 0 C4.59808129 0.53894425 7.86784369 1.76571528 11.875 4.0625 C12.84179688 4.61035156 13.80859375 5.15820312 14.8046875 5.72265625 C15.89136719 6.35494141 15.89136719 6.35494141 17 7 C17 7.66 17 8.32 17 9 C13.0254496 8.30150228 9.73425902 6.37107231 6.25 4.4375 C5.64800781 4.10814453 5.04601562 3.77878906 4.42578125 3.43945312 C2.94829497 2.6303535 1.47383964 1.81572338 0 1 C0 0.67 0 0.34 0 0 Z " fill="#21681D" transform="translate(306,359)"/>
<path d="M0 0 C0 3 0 3 -1 5 C-1.66 5 -2.32 5 -3 5 C-3.268125 5.58265625 -3.53625 6.1653125 -3.8125 6.765625 C-5.01480991 9.02786601 -6.33825913 10.80576318 -8 12.75 C-8.515625 13.36359375 -9.03125 13.9771875 -9.5625 14.609375 C-11 16 -11 16 -13 16 C-11.3383196 11.87582937 -8.37661982 8.93445961 -5.375 5.75 C-4.859375 5.19570313 -4.34375 4.64140625 -3.8125 4.0703125 C-2.54574965 2.7097288 -1.27342185 1.35434163 0 0 Z " fill="#20631B" transform="translate(248,390)"/>
<path d="M0 0 C0 0.33 0 0.66 0 1 C-7.41017023 1.11459026 -14.64206267 0.91160286 -22 0 C-22 -0.33 -22 -0.66 -22 -1 C-14.35745891 -2.25059763 -7.54753743 -1.70428265 0 0 Z " fill="#2C7227" transform="translate(449,314)"/>
<path d="M0 0 C2.06309376 0.11478413 4.12548354 0.24226198 6.1875 0.375 C7.33605469 0.44460938 8.48460937 0.51421875 9.66796875 0.5859375 C12.79959117 0.97509574 15.15285809 1.6809851 18 3 C18 3.33 18 3.66 18 4 C11.7945858 3.51679152 6.00054754 2.66681876 0 1 C0 0.67 0 0.34 0 0 Z " fill="#22671D" transform="translate(339,714)"/>
<path d="M0 0 C-1.55500981 3.81684226 -4.03595495 6.19195732 -7 9 C-7 8.34 -7 7.68 -7 7 C-7.99 6.67 -8.98 6.34 -10 6 C-8.71283353 4.99421411 -7.42011342 3.99553202 -6.125 3 C-5.40570312 2.443125 -4.68640625 1.88625 -3.9453125 1.3125 C-2 0 -2 0 0 0 Z " fill="#408D3F" transform="translate(860,433)"/>
<path d="M0 0 C4.14298667 0.59834725 7.18194377 2.00664285 10.8125 4.0625 C11.78832031 4.61035156 12.76414062 5.15820312 13.76953125 5.72265625 C14.50558594 6.14417969 15.24164062 6.56570313 16 7 C15.67 7.66 15.34 8.32 15 9 C11.32305352 7.62859834 8.04681411 5.96304199 4.6875 3.9375 C3.80449219 3.41027344 2.92148437 2.88304687 2.01171875 2.33984375 C1.34785156 1.89769531 0.68398438 1.45554687 0 1 C0 0.67 0 0.34 0 0 Z " fill="#23681E" transform="translate(578,414)"/>
<path d="M0 0 C-3.58375776 3.58375776 -9.13500141 3.92387761 -14.0625 4.125 C-14.701875 4.08375 -15.34125 4.0425 -16 4 C-16 3.34 -16 2.68 -16 2 C-10.54538831 0.61470179 -5.63281599 -0.2396943 0 0 Z " fill="#256D21" transform="translate(802,460)"/>
<path d="M0 0 C3.73487777 0.4979837 5.81237635 0.87491756 9 3 C8.67 3.66 8.34 4.32 8 5 C8.33 5.66 8.66 6.32 9 7 C8.34 7.66 7.68 8.32 7 9 C5.83037314 7.69013727 4.66437056 6.3770374 3.5 5.0625 C2.8503125 4.33160156 2.200625 3.60070312 1.53125 2.84765625 C0 1 0 1 0 0 Z " fill="#31772A" transform="translate(453,425)"/>
<path d="M0 0 C0.66 0.33 1.32 0.66 2 1 C-7.70394737 11.09210526 -7.70394737 11.09210526 -14 13 C-11.24160796 9.31999566 -8.37924618 6.50494111 -4.75 3.6875 C-3.41195312 2.64142578 -3.41195312 2.64142578 -2.046875 1.57421875 C-1.37140625 1.05472656 -0.6959375 0.53523438 0 0 Z " fill="#3F8C3E" transform="translate(207,387)"/>
<path d="M0 0 C5.95507399 0.3916035 10.62819824 1.37124595 16 4 C12.51799235 5.20655614 10.35462394 4.78332187 6.875 3.6875 C6.00617187 3.42324219 5.13734375 3.15898437 4.2421875 2.88671875 C2 2 2 2 0 0 Z " fill="#23691F" transform="translate(643,350)"/>
<path d="M0 0 C-0.90492188 0.39832031 -0.90492188 0.39832031 -1.828125 0.8046875 C-2.62734375 1.15789062 -3.4265625 1.51109375 -4.25 1.875 C-5.03890625 2.22304688 -5.8278125 2.57109375 -6.640625 2.9296875 C-8.15305067 3.61578789 -9.64624372 4.34705681 -11.109375 5.1328125 C-13 6 -13 6 -16 6 C-16 5.34 -16 4.68 -16 4 C-14.08959948 3.1319092 -12.17139263 2.28098217 -10.25 1.4375 C-9.18265625 0.96183594 -8.1153125 0.48617188 -7.015625 -0.00390625 C-4.01630163 -0.9946154 -2.86578759 -1.16161779 0 0 Z " fill="#276D22" transform="translate(794,343)"/>
<path d="M0 0 C0.99386719 0.00902344 1.98773437 0.01804687 3.01171875 0.02734375 C4.15060547 0.04474609 4.15060547 0.04474609 5.3125 0.0625 C5.3125 0.3925 5.3125 0.7225 5.3125 1.0625 C-0.80730533 2.46704548 -6.40489294 3.29518915 -12.6875 3.0625 C-8.2862703 0.78600188 -4.96778936 -0.05844458 0 0 Z " fill="#1F651A" transform="translate(779.6875,463.9375)"/>
<path d="M0 0 C-3.26737303 3.26737303 -6.83168198 3.95672896 -11.375 4.125 C-12.24125 4.08375 -13.1075 4.0425 -14 4 C-12.66065756 1.32131513 -11.48307603 1.25045922 -8.6875 0.3125 C-7.90761719 0.04050781 -7.12773438 -0.23148437 -6.32421875 -0.51171875 C-3.81725489 -1.03839183 -2.39867657 -0.8178554 0 0 Z " fill="#286F23" transform="translate(756,384)"/>
<path d="M0 0 C0.33 0.66 0.66 1.32 1 2 C0.51789062 2.61488281 0.03578125 3.22976563 -0.4609375 3.86328125 C-1.09257813 4.67152344 -1.72421875 5.47976563 -2.375 6.3125 C-3.31472656 7.51326172 -3.31472656 7.51326172 -4.2734375 8.73828125 C-5.57756718 10.44663212 -6.80781817 12.21172726 -8 14 C-8.66 14 -9.32 14 -10 14 C-8.43632643 10.47761953 -6.30504111 7.72876006 -3.875 4.75 C-3.15054688 3.85796875 -2.42609375 2.9659375 -1.6796875 2.046875 C-0.84824219 1.03367187 -0.84824219 1.03367187 0 0 Z " fill="#24671E" transform="translate(861,432)"/>
<path d="M0 0 C4.77609498 1.64178265 8.79382904 4.26546702 13 7 C10 8 10 8 7.7734375 7.109375 C6.98195313 6.66078125 6.19046875 6.2121875 5.375 5.75 C4.57835937 5.31171875 3.78171875 4.8734375 2.9609375 4.421875 C1 3 1 3 0 0 Z " fill="#23681E" transform="translate(564,453)"/>
<path d="M0 0 C2.31 0 4.62 0 7 0 C7 0.66 7 1.32 7 2 C9.97 2.495 9.97 2.495 13 3 C13 3.66 13 4.32 13 5 C11.58194169 4.71517632 10.16559621 4.42181856 8.75 4.125 C7.96109375 3.96257812 7.1721875 3.80015625 6.359375 3.6328125 C4.03168856 3.00849925 2.10968048 2.15161458 0 1 C0 0.67 0 0.34 0 0 Z " fill="#256C20" transform="translate(649,448)"/>
<path d="M0 0 C0.99 0.33 1.98 0.66 3 1 C-0.3 3.97 -3.6 6.94 -7 10 C-7 7 -7 7 -5.46875 5.17578125 C-4.8190625 4.56089844 -4.169375 3.94601562 -3.5 3.3125 C-2.8503125 2.68988281 -2.200625 2.06726563 -1.53125 1.42578125 C-0.77328125 0.72001953 -0.77328125 0.72001953 0 0 Z " fill="#20641B" transform="translate(158,428)"/>
<path d="M0 0 C1.29608947 0.93137592 2.58671632 1.8703566 3.875 2.8125 C4.59429687 3.33457031 5.31359375 3.85664063 6.0546875 4.39453125 C8 6 8 6 10 9 C6.47899095 9 5.89968686 8.41671132 3.3125 6.1875 C2.68988281 5.66542969 2.06726563 5.14335937 1.42578125 4.60546875 C0 3 0 3 0 0 Z " fill="#286F24" transform="translate(401,419)"/>
<path d="M0 0 C4.54805635 -0.17835515 7.8794254 0.00214565 12 2 C12 2.33 12 2.66 12 3 C10.18674449 2.88648483 8.37436643 2.75887039 6.5625 2.625 C5.04849609 2.52058594 5.04849609 2.52058594 3.50390625 2.4140625 C2.67761719 2.27742187 1.85132813 2.14078125 1 2 C0.67 1.34 0.34 0.68 0 0 Z " fill="#24691F" transform="translate(358,718)"/>
<path d="M0 0 C0.66 0.33 1.32 0.66 2 1 C-0.64 3.64 -3.28 6.28 -6 9 C-6.33 8.01 -6.66 7.02 -7 6 C-4.69 4.02 -2.38 2.04 0 0 Z " fill="#286D21" transform="translate(122,463)"/>
<path d="M0 0 C1.12588014 0.95729916 2.2506715 1.91587895 3.375 2.875 C4.00148438 3.40867187 4.62796875 3.94234375 5.2734375 4.4921875 C6.55836651 5.61432007 7.79371975 6.79371975 9 8 C8.01 8.33 7.02 8.66 6 9 C4.99105628 8.07213211 3.99309093 7.13231567 3 6.1875 C2.1646875 5.40439453 2.1646875 5.40439453 1.3125 4.60546875 C0 3 0 3 0 0 Z " fill="#2C7427" transform="translate(432,446)"/>
<path d="M0 0 C4.59306496 1.4859916 7.43569245 3.85014682 11 7 C10.01 7.33 9.02 7.66 8 8 C5.95703125 6.6015625 5.95703125 6.6015625 3.8125 4.625 C3.09707031 3.97789062 2.38164062 3.33078125 1.64453125 2.6640625 C0 1 0 1 0 0 Z " fill="#20631B" transform="translate(326,410)"/>
<path d="M0 0 C0.66 0 1.32 0 2 0 C2 3.96 2 7.92 2 12 C-0.37555161 9.62444839 -0.36834858 8.69703006 -0.6875 5.4375 C-0.77386719 4.63183594 -0.86023438 3.82617188 -0.94921875 2.99609375 C-0.96597656 2.33738281 -0.98273438 1.67867188 -1 1 C-0.67 0.67 -0.34 0.34 0 0 Z " fill="#24681E" transform="translate(253,288)"/>
<path d="M0 0 C2.64 0.33 5.28 0.66 8 1 C4.46588679 3.12046792 1.05606165 3.53199289 -3 4 C-3 3.34 -3 2.68 -3 2 C-2.01 2 -1.02 2 0 2 C0 1.34 0 0.68 0 0 Z " fill="#347E2F" transform="translate(763,464)"/>
<path d="M0 0 C3.43595166 1.52708963 6.11912454 3.59927045 9 6 C8.67 6.99 8.34 7.98 8 9 C6.66079162 7.88200014 5.32877444 6.75538103 4 5.625 C2.88625 4.68527344 2.88625 4.68527344 1.75 3.7265625 C1.1725 3.15679687 0.595 2.58703125 0 2 C0 1.34 0 0.68 0 0 Z " fill="#1E6319" transform="translate(423,439)"/>
<path d="M0 0 C0.33 0.66 0.66 1.32 1 2 C3.52733235 2.65555119 3.52733235 2.65555119 6 3 C6 3.33 6 3.66 6 4 C0.58461538 4.36923077 0.58461538 4.36923077 -2.375 2.5 C-2.91125 2.005 -3.4475 1.51 -4 1 C-2.68 0.67 -1.36 0.34 0 0 Z " fill="#22671D" transform="translate(375,720)"/>
<path d="M0 0 C0.99 0.33 1.98 0.66 3 1 C-0.96 4.465 -0.96 4.465 -5 8 C-5 5 -5 5 -2.5 2.3125 C-1.675 1.549375 -0.85 0.78625 0 0 Z " fill="#1E6019" transform="translate(183,405)"/>
<path d="M0 0 C0.86625 0.3403125 0.86625 0.3403125 1.75 0.6875 C1.42 1.6775 1.09 2.6675 0.75 3.6875 C-1.56 3.3575 -3.87 3.0275 -6.25 2.6875 C-2.80384615 -0.38942308 -2.80384615 -0.38942308 0 0 Z " fill="#419040" transform="translate(375.25,347.3125)"/>
<path d="M0 0 C2.64 1.98 5.28 3.96 8 6 C7.01 6.33 6.02 6.66 5 7 C2.3125 5.25 2.3125 5.25 0 3 C0 2.01 0 1.02 0 0 Z " fill="#2B7425" transform="translate(521,465)"/>
<path d="M0 0 C0.94875 0.04125 1.8975 0.0825 2.875 0.125 C0.25558783 1.87127478 -1.16324877 2.51222388 -4.125 3.125 C-4.125 4.775 -4.125 6.425 -4.125 8.125 C-4.455 8.125 -4.785 8.125 -5.125 8.125 C-5.25 5.25 -5.25 5.25 -5.125 2.125 C-3.125 0.125 -3.125 0.125 0 0 Z " fill="#337C30" transform="translate(286.125,372.875)"/>
<path d="M0 0 C3.34249629 0.59687434 5.46436342 1.73603877 8 4 C8 4.66 8 5.32 8 6 C4.63408134 4.55746343 2.48952921 2.66735273 0 0 Z " fill="#266B21" transform="translate(551,535)"/>
<path d="M0 0 C3 1 3 1 3 1 Z " fill="#478F41" transform="translate(698,560)"/>
<path d="M0 0 C0.66 0.66 1.32 1.32 2 2 C1.34 2 0.68 2 0 2 C0 1.34 0 0.68 0 0 Z " fill="#43883E" transform="translate(529,516)"/>
<path d="M0 0 C3 1 3 1 3 1 Z " fill="#488F42" transform="translate(708,503)"/>
<path d="M0 0 C0.33 0.66 0.66 1.32 1 2 C0.34 1.67 -0.32 1.34 -1 1 C-0.67 0.67 -0.34 0.34 0 0 Z " fill="#479041" transform="translate(500,414)"/>
<path d="" fill="#469042" transform="translate(0,0)"/>
<path d="M0 0 C2 1 2 1 2 1 Z " fill="#478D43" transform="translate(216,716)"/>
<path d="M0 0 C2 1 2 1 2 1 Z " fill="#41863A" transform="translate(342,712)"/>
<path d="M0 0 C2 1 2 1 2 1 Z " fill="#478F43" transform="translate(313,707)"/>
<path d="M0 0 C2 1 2 1 2 1 Z " fill="#478F44" transform="translate(241,707)"/>
<path d="" fill="#438C3F" transform="translate(0,0)"/>
<path d="M0 0 C2 1 2 1 2 1 Z " fill="#479042" transform="translate(702,560)"/>
<path d="M0 0 C2 1 2 1 2 1 Z " fill="#458E41" transform="translate(659,552)"/>
<path d="M0 0 C2 1 2 1 2 1 Z " fill="#458C42" transform="translate(606,528)"/>
<path d="" fill="#458C3F" transform="translate(0,0)"/>
<path d="M0 0 C2 1 2 1 2 1 Z " fill="#498C41" transform="translate(732,503)"/>
<path d="M0 0 C2 1 2 1 2 1 Z " fill="#499043" transform="translate(674,499)"/>
<path d="" fill="#488E40" transform="translate(0,0)"/>
<path d="" fill="#41813E" transform="translate(0,0)"/>
<path d="M0 0 C2 1 2 1 2 1 Z " fill="#499141" transform="translate(647,493)"/>
<path d="" fill="#427F3B" transform="translate(0,0)"/>
<path d="M0 0 C2 1 2 1 2 1 Z " fill="#459042" transform="translate(601,476)"/>
<path d="" fill="#428A3C" transform="translate(0,0)"/>
<path d="" fill="#448F41" transform="translate(0,0)"/>
<path d="M0 0 C2 1 2 1 2 1 Z " fill="#458940" transform="translate(840,440)"/>
<path d="" fill="#478E42" transform="translate(0,0)"/>
<path d="M0 0 C2 1 2 1 2 1 Z " fill="#498F41" transform="translate(496,412)"/>
<path d="M0 0 C2 1 2 1 2 1 Z " fill="#488F42" transform="translate(483,404)"/>
<path d="" fill="#448F3E" transform="translate(0,0)"/>
<path d="M0 0 C2 1 2 1 2 1 Z " fill="#438A40" transform="translate(662,352)"/>
<path d="M0 0 C2 1 2 1 2 1 Z " fill="#499143" transform="translate(478,324)"/>
<path d="M0 0 C2 1 2 1 2 1 Z " fill="#488E42" transform="translate(368,312)"/>
<path d="" fill="#448B40" transform="translate(0,0)"/>
<path d="M0 0 C2 1 2 1 2 1 Z " fill="#478E41" transform="translate(468,284)"/>
<path d="" fill="#13240E" transform="translate(0,0)"/>
<path d="" fill="#162412" transform="translate(0,0)"/>
<path d="" fill="#162711" transform="translate(0,0)"/>
<path d="" fill="#1C3118" transform="translate(0,0)"/>
<path d="" fill="#223D1B" transform="translate(0,0)"/>
<path d="" fill="#44863F" transform="translate(0,0)"/>
<path d="" fill="#41843D" transform="translate(0,0)"/>
<path d="" fill="#40843B" transform="translate(0,0)"/>
<path d="" fill="#42883F" transform="translate(0,0)"/>
<path d="" fill="#438A41" transform="translate(0,0)"/>
<path d="" fill="#458A41" transform="translate(0,0)"/>
<path d="" fill="#41883F" transform="translate(0,0)"/>
<path d="" fill="#3F803D" transform="translate(0,0)"/>
<path d="" fill="#3D853A" transform="translate(0,0)"/>
<path d="" fill="#448740" transform="translate(0,0)"/>
<path d="" fill="#42883F" transform="translate(0,0)"/>
<path d="" fill="#478A41" transform="translate(0,0)"/>
<path d="" fill="#458D44" transform="translate(0,0)"/>
<path d="" fill="#459042" transform="translate(0,0)"/>
<path d="" fill="#4B9146" transform="translate(0,0)"/>
<path d="" fill="#468D41" transform="translate(0,0)"/>
<path d="" fill="#488D44" transform="translate(0,0)"/>
<path d="" fill="#488F40" transform="translate(0,0)"/>
<path d="" fill="#458F44" transform="translate(0,0)"/>
<path d="" fill="#458D40" transform="translate(0,0)"/>
<path d="" fill="#478F41" transform="translate(0,0)"/>
<path d="" fill="#488E42" transform="translate(0,0)"/>
<path d="" fill="#478E41" transform="translate(0,0)"/>
<path d="" fill="#2D5127" transform="translate(0,0)"/>
<path d="" fill="#458B3E" transform="translate(0,0)"/>
<path d="" fill="#458D40" transform="translate(0,0)"/>
<path d="" fill="#458D3D" transform="translate(0,0)"/>
<path d="" fill="#468D3E" transform="translate(0,0)"/>
<path d="" fill="#499141" transform="translate(0,0)"/>
<path d="" fill="#488E41" transform="translate(0,0)"/>
<path d="" fill="#458B40" transform="translate(0,0)"/>
<path d="" fill="#478B40" transform="translate(0,0)"/>
<path d="" fill="#468C3E" transform="translate(0,0)"/>
<path d="" fill="#468F41" transform="translate(0,0)"/>
<path d="" fill="#498C41" transform="translate(0,0)"/>
<path d="" fill="#448A3E" transform="translate(0,0)"/>
<path d="" fill="#468D3F" transform="translate(0,0)"/>
<path d="" fill="#43893E" transform="translate(0,0)"/>
<path d="" fill="#498E3E" transform="translate(0,0)"/>
<path d="" fill="#35652E" transform="translate(0,0)"/>
<path d="" fill="#448B40" transform="translate(0,0)"/>
<path d="" fill="#468D3E" transform="translate(0,0)"/>
<path d="" fill="#499242" transform="translate(0,0)"/>
<path d="" fill="#42893F" transform="translate(0,0)"/>
<path d="" fill="#478E42" transform="translate(0,0)"/>
<path d="" fill="#438840" transform="translate(0,0)"/>
<path d="" fill="#4A9143" transform="translate(0,0)"/>
<path d="" fill="#42873E" transform="translate(0,0)"/>
<path d="" fill="#43883A" transform="translate(0,0)"/>
<path d="" fill="#489242" transform="translate(0,0)"/>
<path d="" fill="#448B3D" transform="translate(0,0)"/>
<path d="" fill="#4A8C40" transform="translate(0,0)"/>
<path d="" fill="#478F3F" transform="translate(0,0)"/>
<path d="" fill="#489241" transform="translate(0,0)"/>
<path d="" fill="#489242" transform="translate(0,0)"/>
<path d="" fill="#479241" transform="translate(0,0)"/>
<path d="" fill="#488F3F" transform="translate(0,0)"/>
<path d="" fill="#4A9343" transform="translate(0,0)"/>
<path d="" fill="#4C9443" transform="translate(0,0)"/>
<path d="" fill="#4A9242" transform="translate(0,0)"/>
<path d="" fill="#489041" transform="translate(0,0)"/>
<path d="" fill="#489043" transform="translate(0,0)"/>
<path d="" fill="#458C41" transform="translate(0,0)"/>
<path d="" fill="#489242" transform="translate(0,0)"/>
<path d="" fill="#458F43" transform="translate(0,0)"/>
<path d="" fill="#4A9348" transform="translate(0,0)"/>
<path d="" fill="#489142" transform="translate(0,0)"/>
<path d="" fill="#4A9142" transform="translate(0,0)"/>
<path d="" fill="#458B41" transform="translate(0,0)"/>
<path d="" fill="#458F41" transform="translate(0,0)"/>
<path d="" fill="#458F41" transform="translate(0,0)"/>
<path d="" fill="#428A41" transform="translate(0,0)"/>
<path d="" fill="#448A3F" transform="translate(0,0)"/>
<path d="" fill="#499241" transform="translate(0,0)"/>
<path d="" fill="#418740" transform="translate(0,0)"/>
<path d="" fill="#428A40" transform="translate(0,0)"/>
<path d="" fill="#478E42" transform="translate(0,0)"/>
<path d="" fill="#458C40" transform="translate(0,0)"/>
<path d="" fill="#458E3F" transform="translate(0,0)"/>
<path d="" fill="#428C3F" transform="translate(0,0)"/>
<path d="" fill="#428B3E" transform="translate(0,0)"/>
<path d="" fill="#468D40" transform="translate(0,0)"/>
<path d="" fill="#499143" transform="translate(0,0)"/>
<path d="" fill="#479142" transform="translate(0,0)"/>
<path d="" fill="#4A9243" transform="translate(0,0)"/>
<path d="" fill="#468B42" transform="translate(0,0)"/>
<path d="" fill="#458A3F" transform="translate(0,0)"/>
<path d="" fill="#479044" transform="translate(0,0)"/>
<path d="" fill="#458C40" transform="translate(0,0)"/>
<path d="" fill="#4A8F43" transform="translate(0,0)"/>
<path d="" fill="#4A9545" transform="translate(0,0)"/>
<path d="" fill="#4C9543" transform="translate(0,0)"/>
<path d="" fill="#468F42" transform="translate(0,0)"/>
<path d="" fill="#458A3F" transform="translate(0,0)"/>
<path d="" fill="#48933F" transform="translate(0,0)"/>
<path d="" fill="#46893F" transform="translate(0,0)"/>
<path d="" fill="#499545" transform="translate(0,0)"/>
<path d="" fill="#4B9645" transform="translate(0,0)"/>
<path d="" fill="#438B3D" transform="translate(0,0)"/>
<path d="" fill="#4A8C3E" transform="translate(0,0)"/>
<path d="" fill="#479343" transform="translate(0,0)"/>
<path d="" fill="#468E40" transform="translate(0,0)"/>
<path d="" fill="#499243" transform="translate(0,0)"/>
<path d="" fill="#4A9340" transform="translate(0,0)"/>
<path d="" fill="#478F40" transform="translate(0,0)"/>
<path d="" fill="#479144" transform="translate(0,0)"/>
<path d="" fill="#448D41" transform="translate(0,0)"/>
<path d="" fill="#438A41" transform="translate(0,0)"/>
<path d="" fill="#458E41" transform="translate(0,0)"/>
<path d="" fill="#438E40" transform="translate(0,0)"/>
<path d="" fill="#46903F" transform="translate(0,0)"/>
<path d="" fill="#468D3F" transform="translate(0,0)"/>
<path d="" fill="#448D3C" transform="translate(0,0)"/>
<path d="" fill="#478F42" transform="translate(0,0)"/>
<path d="" fill="#428842" transform="translate(0,0)"/>
<path d="" fill="#44873E" transform="translate(0,0)"/>
<path d="" fill="#468F40" transform="translate(0,0)"/>
<path d="" fill="#428D41" transform="translate(0,0)"/>
<path d="" fill="#488F43" transform="translate(0,0)"/>
<path d="" fill="#468E3F" transform="translate(0,0)"/>
<path d="" fill="#448F3E" transform="translate(0,0)"/>
<path d="" fill="#478F41" transform="translate(0,0)"/>
<path d="" fill="#469142" transform="translate(0,0)"/>
<path d="" fill="#46903F" transform="translate(0,0)"/>
<path d="" fill="#488C41" transform="translate(0,0)"/>
<path d="" fill="#499142" transform="translate(0,0)"/>
<path d="" fill="#448D3D" transform="translate(0,0)"/>
<path d="" fill="#468B41" transform="translate(0,0)"/>
<path d="" fill="#458A3E" transform="translate(0,0)"/>
<path d="" fill="#448E42" transform="translate(0,0)"/>
<path d="" fill="#458E41" transform="translate(0,0)"/>
<path d="" fill="#407B3C" transform="translate(0,0)"/>
<path d="" fill="#44863C" transform="translate(0,0)"/>
<path d="" fill="#43873F" transform="translate(0,0)"/>
<path d="" fill="#468F41" transform="translate(0,0)"/>
<path d="" fill="#458F40" transform="translate(0,0)"/>
<path d="" fill="#458D40" transform="translate(0,0)"/>
<path d="" fill="#498E43" transform="translate(0,0)"/>
<path d="" fill="#458D41" transform="translate(0,0)"/>
<path d="" fill="#468D41" transform="translate(0,0)"/>
<path d="" fill="#458F40" transform="translate(0,0)"/>
<path d="" fill="#448B3E" transform="translate(0,0)"/>
<path d="" fill="#458F42" transform="translate(0,0)"/>
<path d="" fill="#469142" transform="translate(0,0)"/>
<path d="" fill="#458B3E" transform="translate(0,0)"/>
<path d="" fill="#468C41" transform="translate(0,0)"/>
<path d="" fill="#498F42" transform="translate(0,0)"/>
<path d="" fill="#469243" transform="translate(0,0)"/>
<path d="" fill="#458E40" transform="translate(0,0)"/>
<path d="" fill="#478E43" transform="translate(0,0)"/>
<path d="" fill="#469142" transform="translate(0,0)"/>
<path d="" fill="#468F40" transform="translate(0,0)"/>
<path d="" fill="#449142" transform="translate(0,0)"/>
<path d="" fill="#459240" transform="translate(0,0)"/>
<path d="" fill="#478D41" transform="translate(0,0)"/>
<path d="" fill="#468F3F" transform="translate(0,0)"/>
<path d="" fill="#469042" transform="translate(0,0)"/>
<path d="" fill="#45923F" transform="translate(0,0)"/>
<path d="" fill="#478F3F" transform="translate(0,0)"/>
<path d="" fill="#418E3F" transform="translate(0,0)"/>
<path d="" fill="#47903F" transform="translate(0,0)"/>
<path d="" fill="#468D40" transform="translate(0,0)"/>
<path d="" fill="#458B3F" transform="translate(0,0)"/>
<path d="" fill="#478E41" transform="translate(0,0)"/>
<path d="" fill="#499143" transform="translate(0,0)"/>
<path d="" fill="#479043" transform="translate(0,0)"/>
<path d="" fill="#4D9343" transform="translate(0,0)"/>
<path d="" fill="#499544" transform="translate(0,0)"/>
<path d="" fill="#489243" transform="translate(0,0)"/>
<path d="" fill="#489441" transform="translate(0,0)"/>
<path d="" fill="#489144" transform="translate(0,0)"/>
<path d="" fill="#499041" transform="translate(0,0)"/>
<path d="" fill="#448A3F" transform="translate(0,0)"/>
<path d="" fill="#448B3E" transform="translate(0,0)"/>
<path d="" fill="#469042" transform="translate(0,0)"/>
<path d="" fill="#468F40" transform="translate(0,0)"/>
<path d="" fill="#479042" transform="translate(0,0)"/>
<path d="" fill="#479143" transform="translate(0,0)"/>
<path d="" fill="#478E42" transform="translate(0,0)"/>
<path d="" fill="#499242" transform="translate(0,0)"/>
<path d="" fill="#4B9142" transform="translate(0,0)"/>
<path d="" fill="#478F42" transform="translate(0,0)"/>
<path d="" fill="#478E41" transform="translate(0,0)"/>
<path d="" fill="#438F43" transform="translate(0,0)"/>
<path d="" fill="#478A40" transform="translate(0,0)"/>
<path d="" fill="#479240" transform="translate(0,0)"/>
<path d="" fill="#489441" transform="translate(0,0)"/>
<path d="" fill="#4A9141" transform="translate(0,0)"/>
<path d="" fill="#438E41" transform="translate(0,0)"/>
<path d="" fill="#48923D" transform="translate(0,0)"/>
<path d="" fill="#449040" transform="translate(0,0)"/>
<path d="" fill="#469242" transform="translate(0,0)"/>
<path d="" fill="#469342" transform="translate(0,0)"/>
<path d="" fill="#498F42" transform="translate(0,0)"/>
<path d="" fill="#498D43" transform="translate(0,0)"/>
<path d="" fill="#478E40" transform="translate(0,0)"/>
<path d="" fill="#489243" transform="translate(0,0)"/>
<path d="" fill="#448C40" transform="translate(0,0)"/>
<path d="" fill="#468F43" transform="translate(0,0)"/>
<path d="" fill="#458D42" transform="translate(0,0)"/>
<path d="" fill="#499142" transform="translate(0,0)"/>
<path d="" fill="#488F42" transform="translate(0,0)"/>
<path d="" fill="#438C41" transform="translate(0,0)"/>
<path d="" fill="#489144" transform="translate(0,0)"/>
<path d="" fill="#499145" transform="translate(0,0)"/>
<path d="" fill="#469043" transform="translate(0,0)"/>
<path d="" fill="#498E41" transform="translate(0,0)"/>
<path d="" fill="#498F40" transform="translate(0,0)"/>
<path d="" fill="#479343" transform="translate(0,0)"/>
<path d="" fill="#46903F" transform="translate(0,0)"/>
<path d="" fill="#448D43" transform="translate(0,0)"/>
<path d="" fill="#488E3F" transform="translate(0,0)"/>
<path d="" fill="#458F41" transform="translate(0,0)"/>
<path d="" fill="#489142" transform="translate(0,0)"/>
<path d="" fill="#499141" transform="translate(0,0)"/>
<path d="" fill="#499042" transform="translate(0,0)"/>
<path d="" fill="#4A8F41" transform="translate(0,0)"/>
<path d="" fill="#479442" transform="translate(0,0)"/>
<path d="" fill="#479241" transform="translate(0,0)"/>
<path d="" fill="#459044" transform="translate(0,0)"/>
<path d="" fill="#469044" transform="translate(0,0)"/>
<path d="" fill="#478D44" transform="translate(0,0)"/>
<path d="" fill="#488F43" transform="translate(0,0)"/>
<path d="" fill="#499344" transform="translate(0,0)"/>
<path d="" fill="#478E43" transform="translate(0,0)"/>
<path d="" fill="#469143" transform="translate(0,0)"/>
<path d="" fill="#478F41" transform="translate(0,0)"/>
<path d="" fill="#488F46" transform="translate(0,0)"/>
<path d="" fill="#459040" transform="translate(0,0)"/>
<path d="" fill="#468F42" transform="translate(0,0)"/>
<path d="" fill="#458D42" transform="translate(0,0)"/>
<path d="" fill="#458E3E" transform="translate(0,0)"/>
<path d="" fill="#448D42" transform="translate(0,0)"/>
<path d="" fill="#438D3E" transform="translate(0,0)"/>
<path d="" fill="#4B9245" transform="translate(0,0)"/>
<path d="" fill="#488D44" transform="translate(0,0)"/>
<path d="" fill="#489143" transform="translate(0,0)"/>
<path d="" fill="#428F3F" transform="translate(0,0)"/>
<path d="" fill="#44853F" transform="translate(0,0)"/>
<path d="" fill="#45903F" transform="translate(0,0)"/>
<path d="" fill="#458B3D" transform="translate(0,0)"/>
<path d="" fill="#4A9345" transform="translate(0,0)"/>
<path d="" fill="#448A3D" transform="translate(0,0)"/>
<path d="" fill="#448E42" transform="translate(0,0)"/>
<path d="" fill="#274821" transform="translate(0,0)"/>
<path d="" fill="#437E3E" transform="translate(0,0)"/>
<path d="" fill="#479345" transform="translate(0,0)"/>
<path d="" fill="#499246" transform="translate(0,0)"/>
<path d="" fill="#4A9243" transform="translate(0,0)"/>
<path d="" fill="#478F44" transform="translate(0,0)"/>
<path d="" fill="#489245" transform="translate(0,0)"/>
<path d="" fill="#4A8E42" transform="translate(0,0)"/>
<path d="" fill="#448B3F" transform="translate(0,0)"/>
<path d="" fill="#448C40" transform="translate(0,0)"/>
<path d="" fill="#489444" transform="translate(0,0)"/>
<path d="" fill="#43883F" transform="translate(0,0)"/>
<path d="" fill="#41853F" transform="translate(0,0)"/>
<path d="" fill="#44883E" transform="translate(0,0)"/>
<path d="" fill="#498F43" transform="translate(0,0)"/>
<path d="" fill="#468D41" transform="translate(0,0)"/>
<path d="" fill="#4A9042" transform="translate(0,0)"/>
<path d="" fill="#438B3F" transform="translate(0,0)"/>
<path d="" fill="#448C42" transform="translate(0,0)"/>
<path d="" fill="#43883E" transform="translate(0,0)"/>
<path d="" fill="#458C41" transform="translate(0,0)"/>
<path d="" fill="#468D40" transform="translate(0,0)"/>
<path d="" fill="#468D42" transform="translate(0,0)"/>
<path d="" fill="#498942" transform="translate(0,0)"/>
<path d="" fill="#458A40" transform="translate(0,0)"/>
<path d="" fill="#478C41" transform="translate(0,0)"/>
<path d="" fill="#438B43" transform="translate(0,0)"/>
<path d="" fill="#223E1B" transform="translate(0,0)"/>
<path d="" fill="#438A43" transform="translate(0,0)"/>
<path d="" fill="#478E42" transform="translate(0,0)"/>
<path d="" fill="#448C43" transform="translate(0,0)"/>
<path d="" fill="#418840" transform="translate(0,0)"/>
<path d="" fill="#40823D" transform="translate(0,0)"/>
<path d="" fill="#192C13" transform="translate(0,0)"/>
<path d="" fill="#182914" transform="translate(0,0)"/>
<path d="" fill="#1B2D14" transform="translate(0,0)"/>
<path d="" fill="#182A15" transform="translate(0,0)"/>
</svg>
